<?xml version="1.0" encoding="utf-8"?>
<!-- Generator: Adobe Illustrator 27.5.0, SVG Export Plug-In . SVG Version: 6.00 Build 0)  -->
<svg version="1.1" xmlns="http://www.w3.org/2000/svg" xmlns:xlink="http://www.w3.org/1999/xlink" x="0px" y="0px"
	 viewBox="0 0 500 500" style="enable-background:new 0 0 500 500;" xml:space="preserve">
<g id="BACKGROUND">
	<rect style="fill:none;" width="500" height="500"/>
</g>
<g id="OBJECTS">
	<g>
		<g>
			<defs>
				<rect id="SVGID_1_" width="500" height="500"/>
			</defs>
			<clipPath id="SVGID_00000128465412008867682790000001517312132474688959_">
				<use xlink:href="#SVGID_1_"  style="overflow:visible;"/>
			</clipPath>
			<g style="opacity:0.8;clip-path:url(#SVGID_00000128465412008867682790000001517312132474688959_);">
				<g>
					<g>
						<path style="fill:#FF6F6F;" d="M396.761,428.043c33.449-7.811,33.97-81.994,25.159-114.729
							c-3.962-14.722-10.673-29.057-10.583-44.303c0.134-22.702,15.064-42.215,23.888-63.132
							c12.09-28.659,10.869-66.023-12.767-86.243c-15.205-13.008-35.471-16.005-52.978-24.606
							c-21.258-10.444-31.609-30.267-47.716-46.666c-29.814-30.353-89.421-45.845-121.502-10.402
							c-8.811,9.735-14.37,21.954-22.323,32.401c-10.034,13.18-23.928,23.385-39.507,29.016
							c-17.269,6.243-36.633,7.068-52.305,16.638C64.827,129.025,55.174,156.48,58.7,181.19
							c2.687,18.836,11.859,36.21,15.222,54.936c9.177,51.086-39.44,88.724-32.374,138.733
							c4.907,34.731,36.439,41.067,66.628,58.926C108.175,433.786,396.727,428.051,396.761,428.043z"/>
					</g>
				</g>
			</g>
			<g style="clip-path:url(#SVGID_00000128465412008867682790000001517312132474688959_);">
				<g>
					<g>
						<path style="fill:#2D3962;" d="M223.652,360.173l-14.704,148.025c0,0,72.993,6.636,72.993,3.792
							c0-2.844,10.428-105.223,10.428-105.223l18.959,102.379h60.669l-24.647-173.476L223.652,360.173z"/>
					</g>
				</g>
				<g>
					<g>
						<path style="fill:#DD796B;" d="M355.489,356.692c-3.017-39.718-2.729-104.621-10.083-145.11
							c-1.791-9.859-5.056-20.136-12.799-26.495c-7.052-5.792-16.599-7.34-25.687-8.162c-22.025-1.992-44.322-0.951-66.066,3.086
							c-5.161,0.958-10.397,2.124-14.9,4.821l-2.39,95.971c0.03,26.457,0.059,52.914,0.089,79.371
							C251.549,358.531,355.489,356.692,355.489,356.692z"/>
					</g>
				</g>
				<g>
					<g>
						<g>
							<g>
								<g>
									<path style="fill:#FFCEAB;" d="M143.97,215.339c3.828-1.696,6.457,1.958,3.34-7.011c-1.64-4.719-1.392-10.871-2.421-14.974
										c-0.525-2.091-1.81-2.697-2.537-2.836c-1.211-0.233-2.027,0.714-2.027,0.714c-0.912-1.473-3.176-0.405-3.638-0.157
										c-0.896,0.481-1.139,1.604-1.139,1.604s-0.869-1.071-2.975-0.241c-1.274,0.502-1.863,1.137-1.949,2.103
										c0,0-2.672,0.263-2.765,2.396c-0.046,1.049-0.039,7.396,3.467,17.627c2.16,6.303,4.278,4.422,7.954,2.794L143.97,215.339z"
										/>
								</g>
							</g>
						</g>
						<g>
							<g>
								<g>
									<path style="fill:#2D3962;" d="M133.321,206.413c-0.395,0-0.762-0.251-0.893-0.646c-1.497-4.53-2.759-10.332-2.765-10.37
										c-0.08-0.513,0.27-0.994,0.784-1.074c0.516-0.08,0.994,0.271,1.074,0.784c0.004,0.013,1.262,5.738,2.693,10.07
										c0.163,0.493-0.105,1.025-0.598,1.188C133.518,206.397,133.419,206.413,133.321,206.413z"/>
								</g>
							</g>
						</g>
						<g>
							<g>
								<g>
									<path style="fill:#2D3962;" d="M137.599,204.624c-0.395,0-0.762-0.25-0.893-0.645c-1.496-4.53-2.474-10.723-2.482-10.783
										c-0.077-0.513,0.276-0.99,0.788-1.068c0.513-0.071,0.992,0.274,1.071,0.787c0.009,0.06,0.969,6.115,2.409,10.474
										c0.163,0.493-0.105,1.025-0.598,1.188C137.796,204.608,137.697,204.624,137.599,204.624z"/>
								</g>
							</g>
						</g>
						<g>
							<g>
								<g>
									<path style="fill:#2D3962;" d="M142.062,203.072c-0.394,0-0.762-0.251-0.892-0.645c-1.512-4.576-2.5-10.758-2.542-11.02
										l1.853-0.319c0.044,0.28,1.009,6.316,2.474,10.749c0.163,0.493-0.105,1.025-0.598,1.188
										C142.259,203.057,142.16,203.072,142.062,203.072z"/>
								</g>
							</g>
						</g>
						<g>
							<g>
								<path style="fill:#FFCEAB;" d="M150.622,197.829c2.207,0.703,1.12,4.959-0.109,8.551c-0.582,1.701-1.166,4.022-2.066,4.899
									c-1.327,1.293-3.143-5.389-3.143-5.389S146.19,196.418,150.622,197.829z"/>
							</g>
						</g>
						<g>
							<g>
								<path style="fill:#2D3962;" d="M146.209,204.502c-0.032,0-0.065-0.002-0.098-0.005c-0.516-0.053-0.892-0.515-0.838-1.031
									c0.013-0.129,0.342-3.199,1.778-5.417c0.282-0.436,0.865-0.56,1.3-0.278c0.436,0.282,0.561,0.864,0.278,1.3
									c-1.187,1.833-1.483,4.561-1.486,4.588C147.093,204.143,146.685,204.502,146.209,204.502z"/>
							</g>
						</g>
					</g>
					<g>
						<g>
							<path style="fill:#DD796B;" d="M153.242,211.895c0.742,0.398,14.826,43.419,22.065,53.387
								c21.646-18.646,27.978-69.117,53.202-82.532l-3.654,91.83c-9.381,21.635-44.087,43.405-57.733,39.129
								c-31.841-9.976-39.771-95.426-39.771-95.426C127.351,218.283,152.647,211.576,153.242,211.895z"/>
						</g>
					</g>
					<g>
						<g>
							<path style="fill:#2D3962;" d="M178.502,273.688c-0.268,0-0.526-0.148-0.654-0.404l-10.757-21.513
								c-0.181-0.361-0.034-0.801,0.327-0.981c0.361-0.182,0.801-0.034,0.981,0.327l10.757,21.513
								c0.181,0.361,0.034,0.801-0.327,0.981C178.724,273.662,178.612,273.688,178.502,273.688z"/>
						</g>
					</g>
				</g>
				<g>
					<g>
						<g>
							<g>
								<path style="fill:#FFCEAB;" d="M223.478,105.166c0,0-6.7,27.963-3.396,44.332c3.12,15.46,16.417,24.353,30.383,23.037
									l2.322,10.623c0,0,19.072,3.196,36.634-3.836l-2.073-24.766l-5.147-52.345l-7.674-9.711l-47.237-2.441L223.478,105.166z"/>
							</g>
						</g>
						<g>
							<g>
								<path style="fill:#2D3962;" d="M253.338,129.702c-0.227,1.49-1.619,2.514-3.109,2.287c-1.49-0.227-2.514-1.619-2.287-3.109
									c0.227-1.49,1.619-2.514,3.108-2.287C252.541,126.821,253.565,128.212,253.338,129.702z"/>
							</g>
						</g>
						<g>
							<g>
								<path style="fill:#2D3962;" d="M237.003,127.588c-0.227,1.49-1.619,2.514-3.109,2.287c-1.49-0.227-2.514-1.619-2.287-3.109
									c0.227-1.49,1.619-2.514,3.108-2.287C236.206,124.706,237.229,126.098,237.003,127.588z"/>
							</g>
						</g>
						<g>
							<g>
								<path style="fill:#2D3962;" d="M243.456,142.499c-1.632,0-3.213-0.396-4.523-1.142c-0.463-0.264-0.624-0.852-0.361-1.315
									c0.263-0.462,0.852-0.625,1.315-0.361c1.193,0.68,2.693,0.985,4.227,0.863c1.399-0.113,2.738-0.584,3.771-1.327
									c0.433-0.311,1.035-0.212,1.346,0.22c0.311,0.432,0.212,1.035-0.22,1.346c-1.332,0.959-2.972,1.541-4.742,1.683
									C243.997,142.489,243.725,142.499,243.456,142.499z"/>
							</g>
						</g>
						<g>
							<g>
								<path style="fill:#2D3962;" d="M270.308,165.78c-1.674,2.098-17.631,13.427-18.294,13.783c0,0-1.844-8.548-1.658-7.469
									c0.077,0.444,3.751,0.318,8.183-1.438c3.972-1.573,8.039-3.899,10.524-5.417L270.308,165.78z"/>
							</g>
						</g>
						<g>
							<g>
								<path style="fill:#2D3962;" d="M248.313,172.988c-5.107,0-10.329-1.101-15.208-3.717c-0.469-0.251-0.645-0.836-0.394-1.305
									c0.251-0.469,0.836-0.645,1.305-0.394c11.955,6.411,26.142,3.152,34.9-2.919c0.436-0.303,1.038-0.194,1.341,0.243
									c0.304,0.438,0.194,1.038-0.243,1.342C264.332,170.177,256.47,172.988,248.313,172.988z"/>
							</g>
						</g>
						<g>
							<g>
								<path style="fill:#2D3962;" d="M248.263,118.981c1.893-1.405,6.715,0.182,8.058,0.962c0,0,0.899,1.454-0.33,2.717
									c-1.433,1.471-5.931,0.095-7.618-0.178c-0.137-0.022-0.28-0.047-0.39-0.131c-0.135-0.103-0.195-0.273-0.245-0.435
									c-0.188-0.611-0.325-1.267-0.168-1.887C247.685,119.571,247.928,119.229,248.263,118.981z"/>
							</g>
						</g>
						<g>
							<g>
								<path style="fill:#2D3962;" d="M230.624,116.975c1.864-1.443,6.718,0.046,8.075,0.798c0,0,0.928,1.436-0.275,2.723
									c-1.402,1.5-5.928,0.216-7.62-0.024c-0.137-0.019-0.281-0.041-0.393-0.123c-0.137-0.1-0.2-0.269-0.254-0.43
									c-0.201-0.607-0.351-1.26-0.206-1.883C230.058,117.577,230.294,117.23,230.624,116.975z"/>
							</g>
						</g>
						<g>
							<g>
								<g>
									<path style="fill:#FFCEAB;" d="M280.132,128.79c4.449-2.17,12.892-6.045,17.316-2.92c3.753,2.651,4.183,8.138,1.197,11.795
										c-4.875,5.97-14.731,8.919-17.642,10.001"/>
								</g>
							</g>
							<g>
								<g>
									<path style="fill:#2D3962;" d="M288.448,132.428c-0.333,0-0.657-0.173-0.836-0.482c-0.267-0.461-0.108-1.05,0.352-1.317
										c0.121-0.069,2.981-1.674,7.108-0.28c0.505,0.17,0.775,0.717,0.604,1.222c-0.17,0.504-0.717,0.773-1.222,0.605
										c-3.311-1.119-5.505,0.111-5.526,0.124C288.777,132.386,288.611,132.428,288.448,132.428z"/>
								</g>
							</g>
							<g>
								<g>
									<path style="fill:#2D3962;" d="M290.552,136.939c-0.174,0-0.35-0.047-0.508-0.146c-0.452-0.281-0.591-0.874-0.311-1.326
										l0,0c0.008-0.014,0.88-1.445,1.73-4.159c0.159-0.508,0.704-0.792,1.208-0.632c0.508,0.159,0.791,0.7,0.632,1.208
										c-0.931,2.972-1.892,4.534-1.933,4.599C291.189,136.778,290.875,136.939,290.552,136.939z"/>
								</g>
							</g>
						</g>
						<g>
							<g>
								<path style="fill:#2D3962;" d="M220.963,104.29c9.901,5.12,23.456-0.619,34.694-2.946c9.175-1.9,15.581,2.939,17.226,4.745
									c0.364,0.4,2.57,34.045,3.125,34.014l7.75,0.165c0.583-0.033-0.497-12.85,0.122-13.065c1.35-0.469,4.347-1.392,5.944-1.62
									c6.004-0.858,9.686,1.532,9.686,1.532s2.347-25.629,0.141-34.64c-0.834-3.404-2.164-6.772-4.498-9.386
									c-3.141-3.518-7.782-5.327-12.393-6.319c-8.652-1.86-29.905,2.424-33.415,2.69c0,0-34,4.711-38.28,2.774
									C211.065,82.232,208.818,98.009,220.963,104.29z"/>
							</g>
						</g>
					</g>
					<g>
						<g>
							<path style="fill:#2D3962;" d="M264.665,184.781c-3.604,0-7.59-0.196-11.98-0.665c-0.529-0.057-0.913-0.531-0.856-1.061
								c0.058-0.53,0.524-0.918,1.061-0.856c25.604,2.737,37.465-4.155,37.581-4.225c0.456-0.271,1.049-0.125,1.322,0.33
								c0.274,0.456,0.128,1.046-0.327,1.321C291.053,179.875,282.68,184.781,264.665,184.781z"/>
						</g>
					</g>
				</g>
				<g>
					<g>
						<path style="fill:#2D3962;" d="M223.734,293.296c-0.4,0-0.727-0.323-0.731-0.725l-0.341-34.103
							c-0.004-0.403,0.32-0.734,0.724-0.738c0.412,0.004,0.734,0.32,0.738,0.725l0.341,34.103c0.004,0.403-0.32,0.734-0.724,0.738
							C223.739,293.296,223.737,293.296,223.734,293.296z"/>
					</g>
				</g>
				<g>
					<g>
						<path style="fill:#F4B04E;" d="M240.853,180.011c0,0-10.3-2.7-15.594,1.779c0,0-4.061,68.122-4.061,79.539
							c0,11.417-9.051,177.576-6.673,178.528c2.379,0.952,146.057,0.817,146.057,0.817s-37.831-258.588-37.831-260.736
							c0-2.148-8.217-4.709-15.832-3.012c-2.421,0.54-1.37,62.451-1.37,62.451l-61.572-0.716L240.853,180.011z"/>
					</g>
				</g>
				<g>
					<g>
						<g>
							<path style="fill:#72A372;" d="M107.01,221.264c6.106-12.258,12.213-24.517,18.319-36.775
								c1.681-3.374,3.367-6.76,4.679-10.173c1.422-3.697,5.913-15.857,6.639-18.034c0.215-0.644,0.478-1.356,1.013-1.841
								c0.715-0.648,1.535-0.569,2.2-0.436c1.768,0.354,2.42,1.156,4.188,1.51l-20.516,48.705L107.01,221.264z"/>
						</g>
					</g>
					<g>
						<g>
							<path style="fill:#89BE89;" d="M143.629,181.778c4.419-8.291,8.702-16.616,12.845-24.968
								c0.345-0.696,0.702-1.445,0.665-2.072c-0.031-0.531-0.344-0.881-0.686-1.157c-0.68-0.548-1.581-0.903-2.656-0.587
								c-1.076,0.316-1.879,1.898-3.166,2.528c-0.866,0.279-0.421-0.722-0.163-1.667c0.258-0.944,0.734-2.041,0.384-2.685
								c-0.175-0.323-0.531-0.454-0.874-0.575c-1.049-0.369-2.099-0.739-3.148-1.108c-0.191-0.067-0.413-0.129-0.653,0.017
								c-0.286,0.173-0.443,0.544-0.558,0.86c-6.406,17.648-14.36,35.308-23.693,52.603"/>
						</g>
					</g>
					<g style="opacity:0.62;">
						<g>
							<g>
								<path style="fill:#5B895B;" d="M148.051,150.208c-5.625,14.232-11.484,28.289-17.693,42.276
									c-0.099,0.222,0.227,0.408,0.335,0.185c6.589-13.746,12.541-27.973,17.632-42.344
									C148.388,150.145,148.122,150.029,148.051,150.208L148.051,150.208z"/>
							</g>
						</g>
					</g>
					<g style="opacity:0.62;">
						<g>
							<g>
								<path style="fill:#5B895B;" d="M149.977,155.654c-4.098,10.112-8.554,19.898-13.587,29.581
									c-0.093,0.179,0.215,0.344,0.315,0.167c5.327-9.402,9.949-19.42,13.525-29.62
									C150.289,155.614,150.047,155.482,149.977,155.654L149.977,155.654z"/>
							</g>
						</g>
					</g>
					<g style="opacity:0.62;">
						<g>
							<g>
								<path style="fill:#5B895B;" d="M154.996,153.811c-3.731,7.704-7.238,15.583-10.496,23.499
									c-0.085,0.207,0.227,0.344,0.319,0.14c3.534-7.811,7.06-15.645,10.446-23.521
									C155.341,153.754,155.079,153.641,154.996,153.811L154.996,153.811z"/>
							</g>
						</g>
					</g>
					<g style="opacity:0.8;">
						<g>
							<g>
								<path style="fill:#5B895B;" d="M140.785,155.332c-7.452,17.746-15.485,35.123-23.64,52.551
									c-0.105,0.225,0.23,0.402,0.343,0.179c8.645-17.088,16.735-34.706,23.554-52.605
									C141.106,155.289,140.857,155.161,140.785,155.332L140.785,155.332z"/>
							</g>
						</g>
					</g>
					<g>
						<g>
							<path style="fill:#89BE89;" d="M100.865,238.319c0.251,0.755,1.08,0.913,1.898,0.799c3.317-0.463,6.676-4.2,9.48-7.606
								c20.092-24.405,39.47-50.02,61.969-71.085c0.567-0.531,1.23-1.255,1.199-1.905c-0.012-0.249-0.13-0.429-0.246-0.599
								c-0.81-1.192-1.62-2.383-2.431-3.575l-0.596-0.788c-0.397-0.525-1.169-0.568-1.618-0.086
								c-7.022,7.529-53.621,59.498-61.889,72.392C99.706,239.784,100.865,238.319,100.865,238.319"/>
						</g>
					</g>
					<g>
						<g>
							<path style="fill:#72A372;" d="M174.046,153.079c-4.779,4.222-8.113,8.558-12.418,13.578
								c-6.382,7.442-13.037,14.574-19.912,21.339c-1.861,1.832-3.739,3.636-5.582,5.499c-13.19,13.332-24.263,29.276-35.165,45.013
								c-1.719-0.59-2.468-2.855-1.762-5.326c0.466-1.632,1.462-3.222,2.44-4.749c6.662-10.406,13.761-20.629,21.747-29.952
								c3.163-3.692,6.453-7.23,9.742-10.766c5.46-5.87,10.537-13.469,15.997-19.34c6.059-6.515,11.775-15.306,18.251-21.123
								C168.648,146.116,175.269,151.998,174.046,153.079z"/>
						</g>
					</g>
					<g style="opacity:0.8;">
						<g>
							<g>
								<path style="fill:#5B895B;" d="M111.909,216.677c19.66-22.227,37.891-45.696,57.489-67.992
									c0.153-0.174-0.084-0.448-0.245-0.273c-20.014,21.88-38.613,45.207-57.431,68.113
									C111.623,216.646,111.806,216.792,111.909,216.677L111.909,216.677z"/>
							</g>
						</g>
					</g>
					<g style="opacity:0.8;">
						<g>
							<g>
								<path style="fill:#5B895B;" d="M114.03,218.857c19.819-22.395,38.347-45.921,58.095-68.391
									c0.153-0.174-0.084-0.448-0.245-0.273c-20.176,22.041-39.074,45.427-58.038,68.512
									C113.744,218.826,113.927,218.973,114.03,218.857L114.03,218.857z"/>
							</g>
						</g>
					</g>
					<g style="opacity:0.62;">
						<g>
							<g>
								<path style="fill:#5B895B;" d="M116.095,221.778c18.026-22.485,37.649-44.193,57.626-64.961
									c0.154-0.16-0.106-0.375-0.26-0.222c-9.819,9.776-18.875,20.433-28.089,30.771c-9.984,11.201-20.453,22.273-29.453,34.299
									C115.837,221.774,116.012,221.881,116.095,221.778L116.095,221.778z"/>
							</g>
						</g>
					</g>
					<g>
						<g>
							<path style="fill:#F7F7F7;" d="M121.097,220.655c-2.944,3.633-5.891,7.258-8.854,10.857c-2.804,3.406-6.163,7.143-9.48,7.606
								c-0.745,0.104-1.495-0.024-1.813-0.618c-1.704-0.601-2.445-2.856-1.742-5.318c0.466-1.632,1.462-3.222,2.44-4.749
								c3.331-5.203,6.771-10.36,10.377-15.382l0.19,4.548l3.856-0.825l-1.523,5.253L121.097,220.655z"/>
						</g>
					</g>
				</g>
				<g>
					<g>
						<path style="fill:#2D3962;" d="M308.77,240.278c-0.004,0-0.008,0-0.012,0l-69.666-1.122c-0.404-0.006-0.726-0.339-0.719-0.743
							c0.007-0.403,0.378-0.721,0.743-0.719l69.666,1.122c0.404,0.006,0.726,0.339,0.72,0.743
							C309.495,239.959,309.169,240.278,308.77,240.278z"/>
					</g>
				</g>
			</g>
			<g style="clip-path:url(#SVGID_00000128465412008867682790000001517312132474688959_);">
				<g>
					<g>
						<rect x="33.491" y="414.614" style="fill:#BF9362;" width="437.69" height="21.711"/>
					</g>
				</g>
				<g>
					<g>
						<polygon style="fill:#BF9362;" points="65.806,512.937 51.239,512.937 51.835,431.531 66.402,431.531 						"/>
					</g>
				</g>
				<g>
					<g>
						<rect x="446.435" y="446.793" style="fill:#BF9362;" width="14.567" height="59.591"/>
					</g>
				</g>
				<g>
					<g>
						<rect x="38.369" y="435.338" style="fill:#A5794E;" width="427.403" height="11.201"/>
					</g>
				</g>
				<g>
					<g>
						<path style="fill:#A5794E;" d="M141.184,423.393c-22.667,0-56.604-0.056-107.433-0.207c-0.276-0.001-0.499-0.226-0.498-0.502
							c0.001-0.275,0.225-0.498,0.5-0.498c0,0,0.001,0,0.001,0c51.694,0.154,149.878,0.354,152.656,0.02
							c0.169-0.049,0.359-0.007,0.493,0.127c0.195,0.195,0.195,0.512,0,0.707C186.773,423.169,186.548,423.393,141.184,423.393z"/>
					</g>
				</g>
				<g>
					<g>
						<path style="fill:#A5794E;" d="M178.93,430.338c-22.667,0-56.604-0.056-107.433-0.207c-0.276-0.001-0.499-0.226-0.498-0.502
							c0.001-0.275,0.225-0.498,0.5-0.498c0,0,0.001,0,0.001,0c51.694,0.154,149.876,0.354,152.656,0.02
							c0.168-0.049,0.358-0.007,0.493,0.127c0.195,0.195,0.195,0.512,0,0.707C224.519,430.115,224.294,430.338,178.93,430.338z"/>
					</g>
				</g>
				<g>
					<g>
						<path style="fill:#A5794E;" d="M280.263,423.393c-14.437,0-36.029-0.056-68.351-0.207c-0.276-0.001-0.499-0.227-0.498-0.502
							c0.002-0.275,0.225-0.498,0.5-0.498c0.001,0,0.002,0,0.002,0c32.646,0.153,94.751,0.354,97.074,0.025
							c0.173-0.055,0.373-0.017,0.512,0.121c0.195,0.195,0.195,0.512,0,0.707C309.373,423.169,309.146,423.393,280.263,423.393z"/>
					</g>
				</g>
				<g>
					<g>
						<path style="fill:#A5794E;" d="M396.521,422.487c-14.436,0-36.029-0.056-68.351-0.207c-0.276-0.001-0.499-0.227-0.498-0.502
							c0.001-0.275,0.225-0.498,0.5-0.498c0.001,0,0.002,0,0.002,0c32.647,0.153,94.751,0.355,97.074,0.025
							c0.172-0.056,0.373-0.018,0.512,0.121c0.195,0.195,0.195,0.512,0,0.707C425.63,422.263,425.404,422.487,396.521,422.487z"/>
					</g>
				</g>
				<g>
					<g>
						<path style="fill:#A5794E;" d="M318.311,430.338c-14.437,0-36.029-0.056-68.351-0.207c-0.276-0.001-0.499-0.227-0.498-0.502
							c0.002-0.275,0.225-0.498,0.5-0.498c0.001,0,0.002,0,0.003,0c32.647,0.153,94.749,0.354,97.074,0.025
							c0.172-0.055,0.374-0.017,0.512,0.121c0.195,0.195,0.195,0.512,0,0.707C347.421,430.115,347.194,430.338,318.311,430.338z"/>
					</g>
				</g>
				<g>
					<g>
						<path style="fill:#A5794E;" d="M441.816,430.338c-14.437,0-36.028-0.056-68.35-0.207c-0.276-0.001-0.499-0.227-0.498-0.502
							c0.001-0.275,0.225-0.498,0.5-0.498c0.001,0,0.002,0,0.002,0c32.648,0.153,94.749,0.354,97.073,0.025
							c0.173-0.055,0.373-0.017,0.512,0.121c0.195,0.195,0.195,0.512,0,0.707C470.925,430.115,470.699,430.338,441.816,430.338z"/>
					</g>
				</g>
			</g>
			<g style="clip-path:url(#SVGID_00000128465412008867682790000001517312132474688959_);">
				<g>
					<g>
						<g>
							<path style="fill:#19A58A;" d="M88.566,354.225c0.456,0.244,0.962,0.376,1.479,0.386c2.158,0.039,4.373-0.05,6.232-1.107
								c2.087-1.187,3.41-4.063,2.096-6.073c-0.472-0.722-1.27-1.433-1.044-2.266c0.12-0.441,0.504-0.749,0.833-1.066
								c1.94-1.871,2.374-4.897,1.779-7.526c-0.596-2.629-2.061-4.964-3.497-7.244c-0.364-0.579-0.736-1.178-0.845-1.853
								c-0.201-1.247,0.522-2.428,0.966-3.611c1.047-2.791,0.479-6.126-1.434-8.413c-1.913-2.287-5.944-3.867-8.877-3.33
								c0.325-4.181-0.487-11.145-6.895-10.69c-3.3,0.234-4.801,5.898-5.013,7.786c-3.025-1.691-6.492-1.055-7.68,2.258
								c-1.188,3.314,0.59,6.11,0.348,9.622c-0.037,0.544-0.094,1.111-0.386,1.571c-0.508,0.803-1.544,1.041-2.386,1.483
								c-2.362,1.24-3.248,4.301-2.831,6.936c0.418,2.634,1.846,4.978,3.114,7.325c0.276,0.511,0.553,1.053,0.55,1.634
								c-0.003,0.739-0.452,1.389-0.782,2.05c-2.361,4.726,1.657,10.628,6.69,12.232c5.033,1.604,10.476,0.214,15.572-1.178
								L88.566,354.225z"/>
						</g>
					</g>
					<g style="opacity:0.41;">
						<g>
							<g>
								<path style="fill:#147F6B;" d="M99.942,336.573c0.596,2.629,0.162,5.655-1.779,7.526c-0.329,0.317-0.714,0.625-0.833,1.066
									c-0.226,0.833,0.571,1.544,1.044,2.266c1.314,2.01-0.009,4.886-2.096,6.073c-1.859,1.057-4.074,1.146-6.232,1.107
									c-0.517-0.009-1.023-0.142-1.479-0.386l-2.008-1.074c-3.452,0.943-7.063,1.885-10.598,1.896c0,0,10.237-4.414,14.127-7.559
									C95.837,342.842,99.942,336.573,99.942,336.573z"/>
							</g>
						</g>
					</g>
					<g>
						<g>
							<path style="fill:#F7F7F7;" d="M88.181,374.87l-6.034-35.769c1.433-3.649,2.716-8.07,2.716-8.07
								c-2.377,2.577-2.478,3.124-3.304,4.584l-3.494-20.711c-0.311,1.991-0.29,6.14-0.07,11.369l-2.791-1.705
								c0,0,2.268,3.03,2.94,4.845c0.259,4.98,0.656,10.648,1.098,16.261c-2.063-1.907-4-3.407-4-3.407l4.178,5.632
								c1.117,13.778,2.437,26.595,2.576,27.185L88.181,374.87z"/>
						</g>
					</g>
					<g style="opacity:0.27;">
						<g>
							<g>
								<path style="fill:#005648;" d="M72.832,334.941c0.614,0,0.553-0.95-0.058-0.95
									C72.161,333.991,72.221,334.941,72.832,334.941L72.832,334.941z"/>
							</g>
						</g>
					</g>
					<g style="opacity:0.27;">
						<g>
							<g>
								<path style="fill:#005648;" d="M72.418,349.084c0.069-0.012,0.138-0.025,0.207-0.038c0.256-0.047,0.355-0.416,0.12-0.561
									c-0.067-0.041-0.134-0.082-0.201-0.124C72.006,348.03,71.771,349.202,72.418,349.084L72.418,349.084z"/>
							</g>
						</g>
					</g>
					<g style="opacity:0.27;">
						<g>
							<g>
								<path style="fill:#005648;" d="M67.255,329.733c-0.007-0.028-0.015-0.056-0.022-0.085c-0.081-0.315-0.505-0.498-0.722-0.183
									c-0.025,0.036-0.05,0.072-0.075,0.108C65.865,330.403,67.496,330.677,67.255,329.733L67.255,329.733z"/>
							</g>
						</g>
					</g>
					<g style="opacity:0.27;">
						<g>
							<g>
								<path style="fill:#005648;" d="M73.112,315.322c0.076-0.01,0.151-0.019,0.227-0.029c0.329-0.042,0.492-0.551,0.177-0.732
									c-0.069-0.04-0.138-0.079-0.207-0.119C72.613,314.04,72.35,315.42,73.112,315.322L73.112,315.322z"/>
							</g>
						</g>
					</g>
					<g style="opacity:0.27;">
						<g>
							<g>
								<path style="fill:#005648;" d="M81.382,307.914c0.053,0.004,0.106,0.008,0.16,0.012c0.497,0.036,0.61-0.702,0.144-0.849
									c-0.067-0.021-0.135-0.043-0.202-0.064C80.886,306.823,80.683,307.863,81.382,307.914L81.382,307.914z"/>
							</g>
						</g>
					</g>
					<g style="opacity:0.27;">
						<g>
							<g>
								<path style="fill:#005648;" d="M90.838,321.239c0.667,0,0.761-1.04,0.087-1.04
									C90.258,320.199,90.164,321.239,90.838,321.239L90.838,321.239z"/>
							</g>
						</g>
					</g>
					<g style="opacity:0.27;">
						<g>
							<g>
								<path style="fill:#005648;" d="M85.705,325.346c0.59,0,0.574-0.915-0.015-0.915C85.1,324.431,85.116,325.346,85.705,325.346
									L85.705,325.346z"/>
							</g>
						</g>
					</g>
					<g style="opacity:0.27;">
						<g>
							<g>
								<path style="fill:#005648;" d="M92.949,335.296c0.558,0,0.595-0.868,0.035-0.868
									C92.425,334.428,92.388,335.296,92.949,335.296L92.949,335.296z"/>
							</g>
						</g>
					</g>
					<g style="opacity:0.27;">
						<g>
							<g>
								<path style="fill:#005648;" d="M89.348,342.472c0.614,0,0.553-0.95-0.058-0.95
									C88.676,341.522,88.737,342.472,89.348,342.472L89.348,342.472z"/>
							</g>
						</g>
					</g>
					<g style="opacity:0.27;">
						<g>
							<g>
								<path style="fill:#005648;" d="M69.522,342.935c-0.022-0.047-0.045-0.095-0.067-0.142c-0.136-0.285-0.439-0.316-0.658-0.108
									c-0.04,0.038-0.081,0.076-0.121,0.114c-0.283,0.268-0.023,0.749,0.31,0.799C69.33,343.651,69.685,343.278,69.522,342.935
									L69.522,342.935z"/>
							</g>
						</g>
					</g>
				</g>
				<g>
					<g>
						<g>
							<path style="fill:#994579;" d="M100.635,384.572c-8.635-1.161-22.054-2.992-12.962-24.55
								c6.959-16.5,7.967-24.812,12.313-32.406c1.678-2.932,7.075-8.231,13.939-2.398c6.864,5.833,4.503,30.788,4.672,35.541
								C118.775,365.784,125.902,387.97,100.635,384.572z"/>
						</g>
					</g>
					<g style="opacity:0.18;">
						<g>
							<path style="fill:#1F254F;" d="M113.924,325.218c6.864,5.833,4.503,30.788,4.672,35.541
								c0.179,5.025,7.306,27.211-17.962,23.813c-4.594-0.618-11.992-1.535-14.761-7.198c0,0,12.821,1.784,19.757-2.481
								C115.04,369.106,113.924,325.218,113.924,325.218z"/>
						</g>
					</g>
					<g>
						<g>
							<path style="fill:#11937A;" d="M106.449,324.235c0,0-3.846,1.444-2.533,3.044c1.314,1.6,3.273-1.52,3.273-1.52
								s-1.355,3.364,0.35,3.505c1.705,0.141,2.685-1.158,2.186-2.898c0,0,1.254,2.828,2.656,1.282
								c1.402-1.546-0.823-2.315-0.823-2.315s1.692,0.861,2.367-0.116c0.675-0.978-3.728-4.053-8.057-2.819
								c-3.235,0.922-3.868,1.957-3.055,2.483C103.565,325.368,106.449,324.235,106.449,324.235z"/>
						</g>
					</g>
					<g>
						<g>
							<path style="fill:#11937A;" d="M108.471,323.255l-0.428-4.82c0,0,1.217-0.535,2.207-0.38
								C111.241,318.212,108.471,323.255,108.471,323.255z"/>
						</g>
					</g>
					<g style="opacity:0.18;">
						<g>
							<g>
								<path style="fill:#1F254F;" d="M107.214,364.275c0.746,0,0.618-1.153-0.122-1.153
									C106.346,363.122,106.474,364.275,107.214,364.275L107.214,364.275z"/>
							</g>
						</g>
					</g>
					<g style="opacity:0.18;">
						<g>
							<g>
								<path style="fill:#1F254F;" d="M107.389,357.728c0.806,0,0.875-1.256,0.063-1.256
									C106.646,356.472,106.576,357.728,107.389,357.728L107.389,357.728z"/>
							</g>
						</g>
					</g>
					<g style="opacity:0.18;">
						<g>
							<g>
								<path style="fill:#1F254F;" d="M103.778,370.8c0.395,0,0.75-0.223,0.801-0.643c0.043-0.357-0.251-0.801-0.643-0.801
									c-0.395,0-0.75,0.223-0.801,0.643C103.092,370.356,103.387,370.8,103.778,370.8L103.778,370.8z"/>
							</g>
						</g>
					</g>
					<g style="opacity:0.18;">
						<g>
							<g>
								<path style="fill:#1F254F;" d="M101.721,365.673c0.395,0,0.75-0.223,0.801-0.643c0.043-0.357-0.251-0.801-0.643-0.801
									c-0.395,0-0.75,0.223-0.801,0.643C101.035,365.23,101.33,365.673,101.721,365.673L101.721,365.673z"/>
							</g>
						</g>
					</g>
					<g style="opacity:0.18;">
						<g>
							<g>
								<path style="fill:#1F254F;" d="M110.832,349.088c0.395,0,0.75-0.223,0.801-0.643c0.043-0.357-0.252-0.801-0.643-0.801
									c-0.395,0-0.75,0.223-0.801,0.643C110.146,348.644,110.44,349.088,110.832,349.088L110.832,349.088z"/>
							</g>
						</g>
					</g>
				</g>
				<g>
					<g>
						<g>
							<path style="fill:#72A372;" d="M78.736,392.058c-8.637-10.628-17.273-21.257-25.91-31.885
								c-2.377-2.925-4.763-5.86-7.328-8.467c-2.778-2.823-11.993-11.94-13.675-13.501c-0.497-0.461-1.037-0.996-1.258-1.683
								c-0.294-0.919,0.117-1.633,0.513-2.184c1.053-1.464,2.053-1.726,3.106-3.189l35.864,38.818L78.736,392.058z"/>
						</g>
					</g>
					<g>
						<g>
							<path style="fill:#89BE89;" d="M57.924,342.389c-5.722-7.451-11.531-14.793-17.423-22.019
								c-0.491-0.602-1.025-1.237-1.611-1.462c-0.497-0.191-0.945-0.051-1.337,0.146c-0.78,0.392-1.475,1.066-1.632,2.176
								c-0.157,1.11,0.951,2.496,0.993,3.928c-0.104,0.904-0.832,0.085-1.585-0.541c-0.753-0.625-1.555-1.512-2.285-1.46
								c-0.367,0.026-0.633,0.296-0.885,0.558c-0.77,0.803-1.541,1.606-2.311,2.409c-0.14,0.146-0.288,0.323-0.255,0.601
								c0.04,0.332,0.312,0.629,0.552,0.864c13.42,13.13,26.211,27.674,38.1,43.322"/>
						</g>
					</g>
					<g style="opacity:0.62;">
						<g>
							<g>
								<path style="fill:#5B895B;" d="M30.998,325.298c10.638,11.024,21.032,22.171,31.208,33.625
									c0.165,0.186,0.419-0.092,0.263-0.277c-9.796-11.68-20.282-22.976-31.261-33.554
									C31.089,324.977,30.881,325.177,30.998,325.298L30.998,325.298z"/>
							</g>
						</g>
					</g>
					<g style="opacity:0.62;">
						<g>
							<g>
								<path style="fill:#5B895B;" d="M36.778,325.824c7.502,7.904,14.57,15.993,21.29,24.574c0.144,0.184,0.411-0.046,0.275-0.231
									c-6.37-8.733-13.571-17.071-21.375-24.553C36.835,325.486,36.654,325.693,36.778,325.824L36.778,325.824z"/>
							</g>
						</g>
					</g>
					<g style="opacity:0.62;">
						<g>
							<g>
								<path style="fill:#5B895B;" d="M37.151,320.464c5.451,6.596,11.186,13.046,17.056,19.272
									c0.151,0.16,0.429-0.037,0.279-0.209c-5.637-6.453-11.304-12.923-17.097-19.237
									C37.263,320.154,37.028,320.316,37.151,320.464L37.151,320.464z"/>
							</g>
						</g>
					</g>
					<g style="opacity:0.8;">
						<g>
							<g>
								<path style="fill:#5B895B;" d="M32.685,334.06c13.081,14.119,25.582,28.632,38.081,43.261
									c0.141,0.165,0.43-0.077,0.292-0.248c-11.992-14.953-24.704-29.595-38.184-43.227
									C32.743,333.715,32.562,333.928,32.685,334.06L32.685,334.06z"/>
							</g>
						</g>
					</g>
					<g>
						<g>
							<path style="fill:#89BE89;" d="M91.723,404.705c0.791,0.084,1.278-0.606,1.512-1.398c0.95-3.212-1.064-7.815-3.005-11.776
								c-13.913-28.385-29.224-56.62-39.101-85.816c-0.249-0.736-0.634-1.639-1.239-1.88c-0.232-0.092-0.444-0.058-0.648-0.023
								c-1.42,0.245-2.84,0.49-4.26,0.735l-0.964,0.216c-0.642,0.144-1,0.83-0.748,1.438c3.952,9.507,32.003,73.424,40.325,86.283
								C92.579,406.366,91.723,404.705,91.723,404.705"/>
						</g>
					</g>
					<g>
						<g>
							<path style="fill:#72A372;" d="M44.37,302.828c1.868,6.098,4.438,10.925,7.229,16.921c4.137,8.888,7.88,17.897,11.196,26.953
								c0.898,2.452,1.765,4.908,2.699,7.356c6.686,17.522,16.624,34.196,26.445,50.63c-1.248,1.321-3.62,1.067-5.578-0.598
								c-1.293-1.1-2.329-2.663-3.315-4.185c-6.72-10.368-13.093-21.059-18.28-32.186c-2.054-4.406-3.915-8.866-5.775-13.322
								c-3.088-7.398-7.907-15.163-10.995-22.562c-3.427-8.211-9.067-17.05-11.687-25.352
								C35.798,304.864,43.892,301.268,44.37,302.828z"/>
						</g>
					</g>
					<g style="opacity:0.8;">
						<g>
							<g>
								<path style="fill:#5B895B;" d="M76.59,385.713c-12.094-27.113-25.954-53.421-38.155-80.497
									c-0.097-0.216-0.418-0.048-0.326,0.168c11.626,27.258,25.164,53.838,38.256,80.415
									C76.432,385.935,76.653,385.856,76.59,385.713L76.59,385.713z"/>
							</g>
						</g>
					</g>
					<g style="opacity:0.8;">
						<g>
							<g>
								<path style="fill:#5B895B;" d="M79.452,384.683c-12.187-27.325-25.975-53.927-38.267-81.214
									c-0.097-0.216-0.418-0.048-0.326,0.168c11.713,27.471,25.18,54.345,38.368,81.132
									C79.294,384.905,79.515,384.826,79.452,384.683L79.452,384.683z"/>
							</g>
						</g>
					</g>
					<g style="opacity:0.62;">
						<g>
							<g>
								<path style="fill:#5B895B;" d="M82.966,384.009c-13.052-25.698-24.618-52.571-35.321-79.325
									c-0.082-0.204-0.397-0.089-0.321,0.118c4.746,12.802,10.643,25.268,16.159,37.747c6.147,13.904,11.962,28.218,19.296,41.554
									C82.844,384.22,83.027,384.129,82.966,384.009L82.966,384.009z"/>
							</g>
						</g>
					</g>
					<g>
						<g>
							<path style="fill:#F7F7F7;" d="M84.006,378.98c2.091,4.183,4.173,8.365,6.224,12.551c1.942,3.962,3.956,8.565,3.005,11.776
								c-0.213,0.722-0.64,1.352-1.313,1.395c-1.252,1.303-3.612,1.045-5.562-0.613c-1.293-1.1-2.329-2.663-3.315-4.185
								c-3.36-5.184-6.633-10.449-9.715-15.808l4.22,1.707l0.844-3.852l4.153,3.558L84.006,378.98z"/>
						</g>
					</g>
				</g>
				<g>
					<g>
						<g>
							<path style="fill:#E07127;" d="M124.044,350.141c1.866,3.264-1.436,7.475-3.889,10.615
								c-10.424,13.339-22.061,25.79-34.71,37.137c-2.054,1.843-4.204,3.698-6.774,4.662c-0.489,0.183-1.13,0.294-1.419-0.105
								c-0.179-0.248-0.138-0.594-0.086-0.906c1.013-6.102,3.244-12.078,6.527-17.48c2.498-4.11,5.579-7.864,8.647-11.6
								c6.152-7.491,12.305-14.982,18.457-22.473c1.37-1.668,2.837-3.409,4.835-4.214
								C118.814,344.494,122.879,348.103,124.044,350.141z"/>
						</g>
					</g>
					<g style="opacity:0.24;">
						<g>
							<g>
								<path style="fill:#BF5921;" d="M118.126,345.63c2.54,0.57,5.045,2.982,5.919,4.51c1.866,3.264-1.436,7.475-3.889,10.615
									c-10.424,13.339-22.061,25.79-34.71,37.137c0,0,22.791-28.685,26.368-33.747C119.617,353.105,118.126,345.63,118.126,345.63
									z"/>
							</g>
						</g>
					</g>
					<g>
						<defs>
							<path id="SVGID_00000065785682981804251160000003883260826355325602_" d="M124.044,350.141
								c1.866,3.264-1.436,7.475-3.889,10.615c-10.424,13.339-22.061,25.79-34.71,37.137c-2.054,1.843-4.204,3.698-6.774,4.662
								c-0.489,0.183-1.13,0.294-1.419-0.105c-0.179-0.248-0.138-0.594-0.086-0.906c1.013-6.102,3.244-12.078,6.527-17.48
								c2.498-4.11,5.579-7.864,8.647-11.6c6.152-7.491,12.305-14.982,18.457-22.473c1.37-1.668,2.837-3.409,4.835-4.214
								C118.814,344.494,122.879,348.103,124.044,350.141z"/>
						</defs>
						<clipPath id="SVGID_00000107557588811619112290000017963472512638893243_">
							<use xlink:href="#SVGID_00000065785682981804251160000003883260826355325602_"  style="overflow:visible;"/>
						</clipPath>
						<g style="opacity:0.75;clip-path:url(#SVGID_00000107557588811619112290000017963472512638893243_);">
							<g>
								<path style="fill:#BF5921;" d="M102.503,355.773c0,0,2.445,3.709,7.423,6.068
									C109.926,361.841,106.969,358.046,102.503,355.773z"/>
							</g>
						</g>
						<g style="opacity:0.75;clip-path:url(#SVGID_00000107557588811619112290000017963472512638893243_);">
							<g>
								<path style="fill:#BF5921;" d="M98.945,361.145c0,0,2.655,3.618,7.706,5.719
									C106.651,366.863,103.486,363.188,98.945,361.145z"/>
							</g>
						</g>
						<g style="opacity:0.75;clip-path:url(#SVGID_00000107557588811619112290000017963472512638893243_);">
							<g>
								<path style="fill:#BF5921;" d="M94.938,366.001c0,0,2.545,3.668,7.559,5.907C102.497,371.909,99.441,368.168,94.938,366.001
									z"/>
							</g>
						</g>
					</g>
					<g>
						<g>
							<path style="fill:#11937A;" d="M134.383,328.957c-0.769,0.927-1.61,2.031-2.482,3.234c0.167-0.331,0.305-0.669,0.351-1.015
								c0.076-0.58-0.173-1.186-0.712-1.29c-0.329-0.064-0.699,0.064-1.041,0.214c-3.003,1.318-5.169,4.326-6.572,7.315
								c-1.486,3.165-2.749,10.375-3.097,11.17l1.074,0.831c3.075-2.096,6.148-4.194,9.218-6.299
								c1.065-0.73,2.167-1.457,3.263-2.209c3.41-2.339,6.759-4.916,8.764-8.577c0.439-0.801,0.788-1.816,0.302-2.416
								c-0.341-0.421-0.985-0.475-1.581-0.405c-1.608,0.189-3.158,1.076-4.524,2.212c1.049-1.643,1.869-3.386,2.283-5.256
								c0.068-0.308,0.121-0.646-0.035-0.879C138.542,324.017,135.067,328.134,134.383,328.957z"/>
						</g>
					</g>
					<g style="opacity:0.58;">
						<g>
							<g>
								<path style="fill:#78A878;" d="M141.869,329.511c0.596-0.07,1.24-0.016,1.581,0.405c0.486,0.6,0.137,1.615-0.302,2.416
									c-2.005,3.66-5.354,6.238-8.764,8.577c-1.096,0.752-2.197,1.479-3.263,2.209c-3.07,2.105-6.144,4.203-9.218,6.299
									l-0.595-0.46c0,0,5.902-7.631,9.282-10.998C135.873,332.694,141.869,329.511,141.869,329.511z"/>
							</g>
						</g>
					</g>
				</g>
				<g>
					<g>
						<g>
							<path style="fill:#E07127;" d="M136.685,361.351c1.067,3.605-3.113,6.946-6.221,9.439
								c-13.207,10.591-27.392,20.038-42.307,28.178c-2.422,1.322-4.941,2.635-7.663,2.983c-0.518,0.066-1.167,0.027-1.357-0.428
								c-0.118-0.283,0.002-0.61,0.124-0.902c2.386-5.707,5.93-11.011,10.365-15.515c3.375-3.427,7.235-6.373,11.079-9.305
								c7.707-5.879,15.415-11.758,23.122-17.637c1.716-1.309,3.543-2.667,5.673-2.991
								C132.89,354.655,136.019,359.101,136.685,361.351z"/>
						</g>
					</g>
					<g style="opacity:0.24;">
						<g>
							<g>
								<path style="fill:#BF5921;" d="M131.959,355.603c2.341,1.138,4.226,4.06,4.725,5.748c1.067,3.605-3.113,6.946-6.221,9.439
									c-13.207,10.591-27.392,20.038-42.307,28.178c0,0,28.766-22.688,33.41-26.794
									C131.695,363.22,131.959,355.603,131.959,355.603z"/>
							</g>
						</g>
					</g>
					<g>
						<defs>
							<path id="SVGID_00000009578870294478544610000015915538531263887748_" d="M136.685,361.351
								c1.067,3.605-3.113,6.946-6.221,9.439c-13.207,10.591-27.392,20.038-42.307,28.178c-2.422,1.322-4.941,2.635-7.663,2.983
								c-0.518,0.066-1.167,0.027-1.357-0.428c-0.118-0.283,0.002-0.61,0.124-0.902c2.386-5.707,5.93-11.011,10.365-15.515
								c3.375-3.427,7.235-6.373,11.079-9.305c7.707-5.879,15.415-11.758,23.122-17.637c1.716-1.309,3.543-2.667,5.673-2.991
								C132.89,354.655,136.019,359.101,136.685,361.351z"/>
						</defs>
						<clipPath id="SVGID_00000002350777410859827690000001374996838070567615_">
							<use xlink:href="#SVGID_00000009578870294478544610000015915538531263887748_"  style="overflow:visible;"/>
						</clipPath>
						<g style="opacity:0.75;clip-path:url(#SVGID_00000002350777410859827690000001374996838070567615_);">
							<g>
								<path style="fill:#BF5921;" d="M114.426,361.889c0,0,1.528,4.171,5.832,7.61
									C120.258,369.499,118.25,365.126,114.426,361.889z"/>
							</g>
						</g>
						<g style="opacity:0.75;clip-path:url(#SVGID_00000002350777410859827690000001374996838070567615_);">
							<g>
								<path style="fill:#BF5921;" d="M109.73,366.301c0,0,1.754,4.131,6.188,7.335
									C115.917,373.635,113.681,369.332,109.73,366.301z"/>
							</g>
						</g>
						<g style="opacity:0.75;clip-path:url(#SVGID_00000002350777410859827690000001374996838070567615_);">
							<g>
								<path style="fill:#BF5921;" d="M104.715,370.108c0,0,1.635,4.154,6.001,7.484
									C110.717,377.592,108.601,373.25,104.715,370.108z"/>
							</g>
						</g>
					</g>
					<g>
						<g>
							<path style="fill:#11937A;" d="M151.61,343.107c-0.961,0.726-2.033,1.607-3.158,2.578c0.239-0.284,0.451-0.581,0.574-0.907
								c0.207-0.547,0.104-1.194-0.397-1.42c-0.306-0.138-0.695-0.098-1.063-0.03c-3.225,0.594-6.023,3.024-8.076,5.611
								c-2.172,2.739-5.057,9.467-5.578,10.161l0.854,1.055c3.474-1.334,6.947-2.671,10.418-4.015
								c1.204-0.466,2.444-0.921,3.682-1.401c3.855-1.494,7.707-3.233,10.499-6.336c0.611-0.679,1.184-1.587,0.849-2.283
								c-0.235-0.488-0.85-0.688-1.446-0.757c-1.608-0.186-3.321,0.322-4.911,1.115c1.398-1.358,2.596-2.867,3.428-4.591
								c0.137-0.284,0.266-0.602,0.168-0.863C156.791,339.252,152.464,342.461,151.61,343.107z"/>
						</g>
					</g>
					<g style="opacity:0.58;">
						<g>
							<g>
								<path style="fill:#78A878;" d="M158.769,345.363c0.596,0.069,1.211,0.269,1.446,0.757c0.335,0.696-0.238,1.603-0.849,2.283
									c-2.791,3.103-6.643,4.842-10.499,6.336c-1.239,0.48-2.478,0.935-3.682,1.401c-3.471,1.344-6.944,2.681-10.418,4.015
									l-0.474-0.585c0,0,7.496-6.072,11.558-8.574C152.202,347.085,158.769,345.363,158.769,345.363z"/>
							</g>
						</g>
					</g>
				</g>
				<g>
					<g>
						<g>
							<g>
								<path style="fill:#E5E5E5;" d="M83.412,384.939l-0.962,2.084c-0.026,0.055,0.026,0.115,0.085,0.098l1.231-0.362
									c0.052-0.015,0.101,0.031,0.09,0.083l-0.256,1.187c-0.013,0.062,0.055,0.109,0.108,0.075l1.466-0.954
									c0.038-0.025,0.089-0.008,0.105,0.034l0.575,1.514c0.022,0.059,0.105,0.062,0.131,0.004l0.587-1.305
									c0.019-0.042,0.071-0.055,0.108-0.028l1.03,0.775c0.049,0.037,0.118-0.001,0.114-0.063l-0.091-1.144
									c-0.004-0.049,0.042-0.087,0.089-0.074l1.199,0.316c0.054,0.014,0.103-0.037,0.086-0.09l-0.937-2.966
									c-0.011-0.034-0.045-0.055-0.08-0.049l-4.625,0.825C83.441,384.903,83.421,384.918,83.412,384.939z"/>
							</g>
						</g>
						<g>
							<g>
								<path style="fill:#BCBCBC;" d="M82.529,387.127c-0.011,0-0.022-0.004-0.032-0.011c-0.023-0.018-0.028-0.052-0.01-0.075
									l1.962-2.587c0.017-0.023,0.05-0.028,0.075-0.011c0.023,0.018,0.028,0.052,0.01,0.075l-1.962,2.587
									C82.562,387.12,82.545,387.127,82.529,387.127z"/>
							</g>
						</g>
						<g>
							<g>
								<path style="fill:#BCBCBC;" d="M83.845,386.796c-0.009,0-0.018-0.002-0.026-0.007c-0.026-0.015-0.035-0.048-0.02-0.073
									c0.006-0.011,0.618-1.099,0.926-1.728c0.012-0.026,0.045-0.038,0.071-0.024c0.026,0.013,0.038,0.045,0.025,0.071
									c-0.309,0.633-0.922,1.724-0.929,1.734C83.882,386.786,83.863,386.796,83.845,386.796z"/>
							</g>
						</g>
						<g>
							<g>
								<path style="fill:#BCBCBC;" d="M83.654,388.123c-0.009,0-0.018-0.002-0.026-0.007c-0.026-0.015-0.035-0.048-0.02-0.073
									c0.011-0.02,1.096-1.938,1.706-3.139c0.014-0.027,0.046-0.036,0.072-0.023c0.026,0.014,0.037,0.046,0.023,0.072
									c-0.612,1.203-1.698,3.123-1.71,3.143C83.691,388.114,83.672,388.123,83.654,388.123z"/>
							</g>
						</g>
						<g>
							<g>
								<path style="fill:#BCBCBC;" d="M85.247,387.155c-0.003,0-0.007-0.001-0.011-0.001c-0.029-0.007-0.047-0.035-0.041-0.063
									c0.003-0.017,0.342-1.622,0.582-2.471c0.008-0.028,0.041-0.041,0.066-0.037c0.028,0.009,0.045,0.038,0.037,0.066
									c-0.239,0.845-0.577,2.447-0.58,2.463C85.294,387.137,85.272,387.155,85.247,387.155z"/>
							</g>
						</g>
						<g>
							<g>
								<path style="fill:#BCBCBC;" d="M85.913,388.755c-0.001,0-0.001,0-0.002,0c-0.03-0.002-0.052-0.026-0.051-0.057
									c0.002-0.036,0.168-3.634,0.229-4.23c0.003-0.027,0.026-0.048,0.053-0.048c0.002,0,0.003,0,0.005,0.001
									c0.029,0.003,0.051,0.029,0.048,0.059c-0.061,0.593-0.228,4.188-0.229,4.225C85.965,388.733,85.941,388.755,85.913,388.755z
									"/>
							</g>
						</g>
						<g>
							<g>
								<path style="fill:#BCBCBC;" d="M87.746,388.137c-0.022,0-0.042-0.014-0.05-0.036l-1.162-3.248
									c-0.01-0.027,0.004-0.058,0.032-0.068c0.027-0.01,0.058,0.005,0.068,0.033l1.162,3.248c0.01,0.027-0.004,0.058-0.032,0.068
									C87.758,388.136,87.752,388.137,87.746,388.137z"/>
							</g>
						</g>
						<g>
							<g>
								<path style="fill:#BCBCBC;" d="M89.042,387.166c-0.016,0-0.033-0.008-0.043-0.021c-0.012-0.017-1.168-1.581-1.632-2.222
									c-0.017-0.023-0.012-0.058,0.012-0.074c0.024-0.018,0.058-0.013,0.075,0.012c0.464,0.64,1.62,2.204,1.631,2.22
									c0.018,0.024,0.013,0.058-0.011,0.075C89.065,387.162,89.053,387.166,89.042,387.166z"/>
							</g>
						</g>
						<g>
							<g>
								<path style="fill:#BCBCBC;" d="M87.724,386.891c-0.021,0-0.041-0.013-0.05-0.033c-0.008-0.021-0.816-2.018-1.054-2.584
									c-0.011-0.027,0.001-0.059,0.029-0.07c0.026-0.008,0.059,0.003,0.07,0.029c0.238,0.565,1.047,2.565,1.055,2.584
									c0.011,0.028-0.003,0.059-0.03,0.07C87.737,386.89,87.731,386.891,87.724,386.891z"/>
							</g>
						</g>
						<g>
							<g>
								<path style="fill:#BCBCBC;" d="M86.621,387.391c-0.028,0-0.051-0.021-0.053-0.05l-0.191-2.568
									c-0.002-0.029,0.02-0.055,0.049-0.058c0.001,0,0.002,0,0.004,0c0.028,0,0.051,0.021,0.053,0.05l0.191,2.568
									c0.002,0.029-0.02,0.055-0.049,0.058C86.623,387.391,86.622,387.391,86.621,387.391z"/>
							</g>
						</g>
					</g>
					<g>
						<g>
							<path style="fill:#FFD69F;" d="M87.021,385.352c-7.288,0.432-22.857-2.948-20.244-19.767c0.494-3.18,3.05-5.978,5.431-7.949
								c2.151-1.78,5.017-2.7,6.833-4.886c2.014-2.425,2.671-6.094,2.186-9.134l2.572,3.651l1.6-6.154l1.597,5.764
								c0,0,1.191-4.13,2.711-4.969c0,0-3.352,8.299,2.232,11.762c5.583,3.463,9.495,6.125,10.475,13.755
								C103.556,376.317,97.683,384.72,87.021,385.352z"/>
						</g>
					</g>
					<g style="opacity:0.39;">
						<g>
							<path style="fill:#BC8037;" d="M85.935,385.299c-0.039,0-0.077-0.018-0.101-0.052c-0.879-1.213-1.849-2.284-2.787-3.32
								c-2.681-2.96-5.212-5.755-5.938-11.689c-0.468-3.826,1.812-8.171,3.478-11.344c0.337-0.642,0.656-1.249,0.917-1.786
								c1.697-3.496,2.388-6.62,2.172-9.833c-0.005-0.069,0.047-0.129,0.116-0.134c0.078,0.006,0.128,0.049,0.133,0.116
								c0.219,3.259-0.48,6.423-2.197,9.96c-0.263,0.541-0.582,1.149-0.92,1.793c-1.65,3.143-3.91,7.448-3.451,11.196
								c0.717,5.855,3.223,8.622,5.876,11.552c0.943,1.041,1.917,2.117,2.804,3.342c0.04,0.056,0.028,0.134-0.028,0.175
								C85.986,385.291,85.96,385.299,85.935,385.299z"/>
						</g>
					</g>
					<g style="opacity:0.39;">
						<g>
							<path style="fill:#BC8037;" d="M81.029,384.933c-0.03,0-0.06-0.011-0.084-0.032c-0.657-0.593-1.303-1.149-1.928-1.689
								c-3.879-3.34-6.942-5.977-7.793-12.922c-0.584-4.769,2.967-10.215,5.646-12.157c4.021-2.915,4.872-10.558,4.655-13.801
								c-0.005-0.069,0.047-0.129,0.116-0.134c0.082,0.004,0.128,0.049,0.133,0.116c0.112,1.666-0.03,4.438-0.765,7.225
								c-0.58,2.2-1.743,5.165-3.993,6.797c-2.629,1.906-6.116,7.25-5.544,11.923c0.839,6.85,3.87,9.46,7.708,12.764
								c0.626,0.54,1.274,1.098,1.933,1.692c0.051,0.046,0.055,0.125,0.009,0.177C81.097,384.919,81.064,384.933,81.029,384.933z"/>
						</g>
					</g>
					<g style="opacity:0.39;">
						<g>
							<path style="fill:#BC8037;" d="M86.683,385.247c-0.06,0-0.113-0.043-0.124-0.104c-0.576-3.485-2.031-15.311-1.621-22.578
								c0.295-5.198,0.63-15.026,0.35-20.799c-0.003-0.068,0.05-0.127,0.119-0.131c0.062-0.005,0.127,0.05,0.131,0.119
								c0.281,5.782-0.055,15.621-0.35,20.824c-0.41,7.247,1.043,19.046,1.618,22.523c0.011,0.068-0.035,0.133-0.103,0.143
								C86.696,385.246,86.69,385.247,86.683,385.247z"/>
						</g>
					</g>
					<g style="opacity:0.39;">
						<g>
							<path style="fill:#BC8037;" d="M87.275,385.233c-0.024,0-0.049-0.007-0.071-0.022c-0.057-0.039-0.071-0.117-0.032-0.174
								c3.067-4.436,6.129-10.077,5.585-18.266c-0.177-2.647-1.165-4.884-2.309-7.474c-1.441-3.264-3.075-6.962-3.461-12.474
								c-0.005-0.069,0.047-0.129,0.116-0.134c0.062-0.009,0.129,0.048,0.133,0.116c0.384,5.469,2.008,9.146,3.441,12.39
								c1.154,2.611,2.15,4.867,2.329,7.559c0.55,8.266-2.536,13.952-5.627,18.425C87.354,385.214,87.315,385.233,87.275,385.233z"
								/>
						</g>
					</g>
					<g style="opacity:0.39;">
						<g>
							<path style="fill:#BC8037;" d="M88.75,385.074c-0.043,0-0.085-0.022-0.108-0.063c-0.034-0.06-0.014-0.137,0.046-0.171
								c1.296-0.741,12.552-7.581,8.783-19.335c-0.814-2.538-2.527-4.538-4.184-6.472c-1.634-1.906-3.323-3.878-4.183-6.382
								c-1.859-5.408-0.931-7.73,0.052-10.189l0.151-0.379c0.025-0.064,0.096-0.096,0.162-0.07c0.064,0.025,0.096,0.098,0.07,0.162
								l-0.151,0.38c-1.007,2.518-1.876,4.694-0.048,10.014c0.845,2.46,2.519,4.413,4.137,6.302
								c1.673,1.952,3.403,3.971,4.233,6.558c3.829,11.941-7.583,18.877-8.897,19.628C88.793,385.07,88.771,385.074,88.75,385.074z"
								/>
						</g>
					</g>
					<g style="opacity:0.24;">
						<g>
							<path style="fill:#D89741;" d="M66.653,371.724c1.591,11.528,14.07,14.001,20.368,13.628
								c10.662-0.632,16.535-9.035,15.393-17.927c-0.98-7.63-4.892-10.293-10.475-13.755c0,0,9.177,19.638-5.411,24.69
								C77.47,381.496,66.653,371.724,66.653,371.724z"/>
						</g>
					</g>
				</g>
				<g>
					<g>
						<g>
							<path style="fill:#4B6DC4;" d="M96.647,418.717L96.647,418.717c-23.08,0-41.791-18.71-41.791-41.79v-6.217h83.581v6.217
								C138.437,400.007,119.727,418.717,96.647,418.717z"/>
						</g>
					</g>
					<g style="opacity:0.19;">
						<g>
							<path style="fill:#2D3962;" d="M137.72,384.674c-3.633,19.379-20.641,34.043-41.074,34.043h0
								c-8.655,0-16.696-2.631-23.365-7.137c0,0,19.844,0.641,35.251-6.742C115.951,401.283,137.72,384.674,137.72,384.674z"/>
						</g>
					</g>
					<g>
						<g>
							<rect x="80.759" y="415.263" style="fill:#2D3962;" width="31.429" height="4.835"/>
						</g>
					</g>
					<g>
						<g>
							<path style="fill:#2D3962;" d="M137.36,373.625H55.346c-1.196,0-2.166-0.97-2.166-2.166l0,0c0-1.196,0.97-2.166,2.166-2.166
								h82.015c1.196,0,2.166,0.97,2.166,2.166l0,0C139.526,372.655,138.557,373.625,137.36,373.625z"/>
						</g>
					</g>
				</g>
			</g>
			<g style="clip-path:url(#SVGID_00000128465412008867682790000001517312132474688959_);">
				<g>
					<g>
						<g>
							<g>
								<polygon style="fill:#2D3962;" points="280.45,411.65 208.1,411.65 208.1,402.222 240.342,402.222 240.342,404.222 
									210.1,404.222 210.1,409.65 278.45,409.65 278.45,404.222 254.106,404.222 254.106,402.222 280.45,402.222 								"/>
							</g>
						</g>
						<g>
							<g>
								<rect x="246.77" y="403.877" style="fill:#2D3962;" width="2" height="6.336"/>
							</g>
						</g>
					</g>
					<g>
						<g>
							<rect x="217.246" y="411.221" style="fill:#2D3962;" width="2" height="4.184"/>
						</g>
					</g>
					<g>
						<g>
							<rect x="272.905" y="411.221" style="fill:#2D3962;" width="2" height="4.184"/>
						</g>
					</g>
				</g>
				<g>
					<g style="opacity:0.74;">
						<g style="opacity:0.48;">
							<g>
								<g>
									<path style="fill:#FFFFFF;" d="M234.244,296.222c-7.809-1.331-12.758,9.33-6.948,14.548
										c3.13,2.811,7.531,4.297,7.529,9.199c-0.001,2.872-2.337,3.525-3.311,6.133c-0.752,2.012-0.527,4.163-0.169,6.236
										c0.716,4.144,1.541,8.028,1.732,12.275c0.077,1.716,2.666,2.034,2.742,0.219c0.098-2.347-0.028-4.634-0.401-6.955
										c-0.44-2.742-2.231-6.719-1.578-9.386c0.865-3.537,5.065-5.001,4.563-8.879c-0.375-2.897-2.807-5.794-4.934-7.609
										c-0.899-0.767-2.045-1.301-2.898-2.1c-1.4-1.312-3.41-4.274-3.283-6.313c0.218-3.497,4.521-5.164,7.098-6.408
										C234.789,296.987,234.682,296.297,234.244,296.222L234.244,296.222z"/>
								</g>
							</g>
						</g>
						<g style="opacity:0.48;">
							<g>
								<g>
									<path style="fill:#FFFFFF;" d="M253.751,285.496c-3.441,0.514-5.499,3.242-5.266,6.736c0.317,4.75,4.646,7.938,6.622,11.92
										c1.064,2.145,1.72,5.207,0.733,7.539c-0.399,0.944-1.675,1.732-2.206,2.672c-1.034,1.829-1.331,3.725-1.147,5.789
										c0.256,2.883,1.589,5.325,2.403,8.06c1.158,3.892,0.634,7.647,1.065,11.59c0.154,1.406,2.02,1.158,2.307-0.03
										c0.834-3.456,0.695-7.338-0.188-10.788c-0.404-1.577-1.073-3.063-1.627-4.588c-1.573-4.326-0.654-7.152,1.56-11.214
										c1.46-2.678,1.386-4.967,0.4-7.865c-0.543-1.596-1.307-3.035-2.254-4.425c-0.686-1.006-1.514-1.896-2.235-2.873
										c-1.656-2.242-7.389-9.472,0.109-11.093C254.834,286.752,254.576,285.373,253.751,285.496L253.751,285.496z"/>
								</g>
							</g>
						</g>
						<g style="opacity:0.48;">
							<g>
								<g>
									<path style="fill:#FFFFFF;" d="M198.561,291.402c-0.04,2.865,0.848,5.127,2.411,7.517c1.188,1.817,2.691,3.422,3.698,5.357
										c1.316,2.528,1.341,3.349,0.661,6.305c-0.749,3.259-0.947,2.382-1.865,4.51c-1.44,3.341-1.407,6.019-0.333,9.534
										c0.756,2.475,1.825,4.753,2.227,7.326c0.449,2.874,0.085,5.728,0.398,8.603c0.153,1.406,2.021,1.159,2.307-0.03
										c0.837-3.472,0.673-7.306-0.191-10.772c-0.718-2.884-2.429-5.565-2.821-8.531c-0.449-3.393,1.479-4.561,2.722-7.267
										c1.182-2.571,1.468-4.289,0.671-7.115c-1.637-5.805-8.089-9.3-8.421-15.528
										C199.976,290.357,198.573,290.466,198.561,291.402L198.561,291.402z"/>
								</g>
							</g>
						</g>
						<g style="opacity:0.48;">
							<g>
								<g>
									<path style="fill:#FFFFFF;" d="M277.682,305.698c-0.039,2.865,0.848,5.127,2.411,7.517
										c1.188,1.817,2.691,3.422,3.698,5.357c1.316,2.528,1.341,3.349,0.661,6.305c-0.749,3.259-0.947,2.382-1.865,4.51
										c-1.44,3.341-1.407,6.019-0.333,9.534c0.756,2.475,1.825,4.753,2.227,7.326c0.449,2.874,0.085,5.728,0.398,8.603
										c0.153,1.406,2.021,1.159,2.307-0.03c0.837-3.472,0.673-7.306-0.191-10.772c-0.718-2.884-2.429-5.565-2.821-8.531
										c-0.449-3.393,1.479-4.561,2.722-7.267c1.182-2.571,1.468-4.289,0.671-7.115c-1.637-5.805-8.089-9.3-8.42-15.528
										C279.097,304.654,277.695,304.762,277.682,305.698L277.682,305.698z"/>
								</g>
							</g>
						</g>
					</g>
					<g>
						<g>
							<path style="fill:#4B6DC4;" d="M303.222,402.585H184.887c-5.691,0-10.304-4.613-10.304-10.304v-58.897h138.942v58.897
								C313.526,397.972,308.913,402.585,303.222,402.585z"/>
						</g>
					</g>
					<g style="opacity:0.19;">
						<g>
							<path style="fill:#2D3962;" d="M313.526,349.577v42.705c0,5.691-4.613,10.304-10.304,10.304h-84.118
								c0,0,43.876-11.262,60.49-21.06C296.208,371.728,313.526,349.577,313.526,349.577z"/>
						</g>
					</g>
					<g>
						<g>
							<path style="fill:#2D3962;" d="M314.362,336.341H171.681c-2.976,0-5.389-2.413-5.389-5.389l0,0
								c0-2.976,2.413-5.389,5.389-5.389h142.681c2.976,0,5.389,2.413,5.389,5.389l0,0
								C319.751,333.928,317.338,336.341,314.362,336.341z"/>
						</g>
					</g>
					<g>
						<g>
							<path style="fill:#2D3962;" d="M176.728,346.368h-7.597c-1.694,0-3.068-1.374-3.068-3.068l0,0
								c0-1.694,1.374-3.068,3.068-3.068h7.597c1.694,0,3.068,1.374,3.068,3.068l0,0
								C179.796,344.994,178.423,346.368,176.728,346.368z"/>
						</g>
					</g>
					<g>
						<g>
							<path style="fill:#2D3962;" d="M317.369,346.368h-7.597c-1.694,0-3.068-1.374-3.068-3.068l0,0
								c0-1.694,1.374-3.068,3.068-3.068h7.597c1.695,0,3.068,1.374,3.068,3.068l0,0
								C320.437,344.994,319.063,346.368,317.369,346.368z"/>
						</g>
					</g>
				</g>
				<g>
					<g>
						<rect x="159.349" y="414.094" style="fill:#2D3962;" width="168.926" height="5.74"/>
					</g>
				</g>
			</g>
			<g style="clip-path:url(#SVGID_00000128465412008867682790000001517312132474688959_);">
				<g>
					<g>
						<rect x="357.966" y="411.265" style="fill:#A5794E;" width="105.83" height="7.876"/>
					</g>
				</g>
				<g>
					<g>
						<g>
							<path style="fill:#EFEFEF;" d="M369.659,403.204h62.584l0.362,7.766c0,0-24.961,3.02-39.07,2.157
								C379.426,412.265,369.659,403.204,369.659,403.204z"/>
						</g>
					</g>
					<g>
						<g>
							<path style="fill:#2D3962;" d="M446.655,412.888h-18.63v-11.214h18.63c3.097,0,5.607,2.51,5.607,5.607l0,0
								C452.262,410.377,449.752,412.888,446.655,412.888z"/>
						</g>
					</g>
					<g>
						<g>
							<circle style="fill:#FFFFFF;" cx="446.544" cy="407.318" r="1.483"/>
						</g>
					</g>
				</g>
			</g>
			<g style="clip-path:url(#SVGID_00000128465412008867682790000001517312132474688959_);">
				<g>
					<g style="opacity:0.59;">
						<g>
							<path style="fill:#FFFFFF;" d="M199.725,269.304l134.778,69.867c0,0-12.599-26.501-58.781-50.012
								C231.178,266.482,199.725,269.304,199.725,269.304z"/>
						</g>
					</g>
					<g>
						<g>
							<path style="fill:#DDDDDD;" d="M332.845,340.658l-133.216-70.003c-0.565-0.301-0.778-1.003-0.477-1.568l0,0
								c0.301-0.564,1.003-0.778,1.568-0.477l133.216,70.003c0.565,0.301,0.778,1.003,0.477,1.568l0,0
								C334.111,340.746,333.41,340.959,332.845,340.658z"/>
						</g>
					</g>
				</g>
				<g>
					<g>
						<g>
							<path style="fill:#2D3962;" d="M280.911,295.285l-13.883-7.197c-1.378-0.714-1.915-2.41-1.201-3.788l0,0
								c0.714-1.378,2.41-1.916,3.788-1.201l13.882,7.197c1.378,0.714,1.916,2.41,1.201,3.788l0,0
								C283.984,295.461,282.288,295.999,280.911,295.285z"/>
						</g>
					</g>
					<g>
						<g>
							
								<rect x="274.127" y="277.923" transform="matrix(0.8878 0.4602 -0.4602 0.8878 161.7861 -96.3017)" style="fill:#2D3962;" width="8.551" height="11.483"/>
						</g>
					</g>
					<g>
						<g>
							<path style="fill:#2D3962;" d="M288.212,285.763l-16.914-8.768c-1.868-0.969-2.598-3.268-1.629-5.137l0,0
								c0.969-1.868,3.268-2.598,5.136-1.629l16.914,8.768c1.868,0.969,2.598,3.268,1.629,5.136l0,0
								C292.38,286.002,290.08,286.731,288.212,285.763z"/>
						</g>
					</g>
				</g>
			</g>
			<g style="clip-path:url(#SVGID_00000128465412008867682790000001517312132474688959_);">
				<g>
					<g>
						<g>
							<g>
								<path style="fill:#FFCEAB;" d="M304.025,278.651l0.435-13.198c0,0-9.009-0.892-14.11-0.808
									c-8.549,0.141-14.445,5.977-13.513,8.894c0.33,1.033,0.979,1.671,2.18,1.683c0.481,0.005,1.324-0.418,2.141-0.913
									c-0.031,0.028-0.068,0.049-0.098,0.078c-1.135,1.074-1.782,3.527-0.652,4.607c1.981,1.894,3.634,0.035,4.129-0.291
									c0.36-0.236,0.719-0.473,1.079-0.709c0.063,0.081,0.123,0.173,0.187,0.247c0.029,0.034,0.065,0.06,0.095,0.093
									c-0.388,0.522-0.684,1.095-0.784,1.735c-0.189,1.211,0.628,2.638,1.853,2.663c0.877,0.018,1.599-0.634,2.301-1.16
									c1.077-0.807,2.279-1.376,3.548-1.794C294.304,279.613,304.025,278.651,304.025,278.651z M283.36,272.776l0.151-0.053
									c0.012,0.058,0.025,0.115,0.037,0.173c-0.255,0.095-0.505,0.195-0.748,0.314
									C283.106,272.987,283.316,272.821,283.36,272.776z"/>
							</g>
						</g>
					</g>
					<g>
						<g>
							<path style="fill:#2D3962;" d="M283.596,280.444c-0.185,0-0.371-0.07-0.514-0.211c-0.287-0.284-0.29-0.747-0.007-1.034
								c0.139-0.141,3.435-3.458,6.061-4.233c0.391-0.115,0.794,0.108,0.908,0.494c0.114,0.388-0.107,0.794-0.494,0.908
								c-2.265,0.668-5.402,3.826-5.434,3.857C283.973,280.37,283.785,280.444,283.596,280.444z"/>
						</g>
					</g>
					<g>
						<g>
							<path style="fill:#2D3962;" d="M279.803,275.972c-0.197,0-0.395-0.08-0.539-0.237c-0.272-0.298-0.253-0.761,0.045-1.033
								c0.11-0.101,2.728-2.483,5.506-3.649c0.373-0.156,0.801,0.018,0.957,0.391c0.156,0.372-0.018,0.801-0.391,0.957
								c-2.541,1.067-5.06,3.357-5.084,3.38C280.157,275.909,279.98,275.972,279.803,275.972z"/>
						</g>
					</g>
				</g>
				<g>
					<g>
						<path style="fill:#DD796B;" d="M346.294,266.595c-17.06-2.53-24.387-4.296-41.447-6.826c-1.04-0.154-2.335-0.198-2.882,0.7
							c-0.3,0.493-0.255,1.113-0.2,1.687c0.997,10.446,1.994,20.892,2.991,31.338c0.121,1.262,0.271,2.601,1.055,3.597
							c0.67,0.85,1.702,1.317,2.696,1.747c14.153,6.113,28.914,10.819,43.993,14.024c10.292,2.187,22.96,2.846,29.301-5.55
							c5.024-6.652,3.622-16.009,1.569-24.089c-8.898-35.024-35.305-85.363-52.175-99.069L346.294,266.595z"/>
					</g>
				</g>
				<g>
					<g>
						<path style="fill:#2D3962;" d="M352.503,313.593c-0.051,0-0.102-0.005-0.153-0.017c-15.105-3.21-29.954-7.943-44.132-14.067
							c-0.915-0.395-2.169-0.935-2.979-1.966c-0.942-1.193-1.09-2.738-1.209-3.979l-2.991-31.338
							c-0.054-0.563-0.135-1.416,0.303-2.137c0.883-1.449,2.938-1.144,3.614-1.044l51.18,7.59c0.399,0.06,0.675,0.432,0.616,0.831
							c-0.06,0.4-0.438,0.673-0.831,0.616l-51.18-7.59c-1.176-0.173-1.899-0.055-2.15,0.357c-0.171,0.282-0.144,0.728-0.097,1.237
							l2.991,31.338c0.128,1.335,0.276,2.42,0.902,3.213c0.538,0.684,1.41,1.097,2.411,1.529
							c14.089,6.085,28.845,10.788,43.856,13.979c0.395,0.084,0.646,0.472,0.563,0.867
							C353.144,313.358,352.84,313.593,352.503,313.593z"/>
					</g>
				</g>
				<g>
					<g>
						<path style="fill:#2D3962;" d="M335.745,264.066c-0.351,0-0.659-0.253-0.72-0.609l-4.256-25.169
							c-0.067-0.398,0.2-0.776,0.599-0.843c0.394-0.065,0.775,0.2,0.843,0.599l4.256,25.169c0.067,0.398-0.2,0.775-0.599,0.843
							C335.827,264.062,335.786,264.066,335.745,264.066z"/>
					</g>
				</g>
			</g>
		</g>
		<g>
			<g>
				<g>
					<path style="fill:#4B6DC4;" d="M393.648,118.856L393.648,118.856c-19.017,0-34.434-15.416-34.434-34.434V79.3h68.868v5.122
						C428.082,103.44,412.665,118.856,393.648,118.856z"/>
				</g>
				<g style="opacity:0.19;">
					<path style="fill:#2D3962;" d="M427.491,90.806c-2.993,15.967-17.007,28.05-33.843,28.05h0c-7.132,0-13.757-2.168-19.252-5.881
						c0,0,16.351,0.528,29.045-5.555C409.554,104.492,427.491,90.806,427.491,90.806z"/>
				</g>
				<g>
					<rect x="380.558" y="116.011" style="fill:#2D3962;" width="25.896" height="3.984"/>
				</g>
				<g>
					<path style="fill:#2D3962;" d="M427.195,81.702h-67.577c-0.986,0-1.785-0.799-1.785-1.785l0,0c0-0.986,0.799-1.785,1.785-1.785
						h67.577c0.986,0,1.785,0.799,1.785,1.785l0,0C428.979,80.903,428.18,81.702,427.195,81.702z"/>
				</g>
			</g>
			<g>
				<g>
					<rect x="344.68" y="119.611" style="fill:#BF9362;" width="98.872" height="14.956"/>
				</g>
				<g>
					<path style="fill:#A5794E;" d="M435.263,125.291c-16.93,0-36.549-0.239-36.767-0.242c-0.331-0.004-0.596-0.276-0.592-0.607
						c0.004-0.329,0.272-0.592,0.6-0.592c0.002,0,0.005,0,0.008,0c0.24,0.003,24.282,0.295,42.108,0.232c0.001,0,0.001,0,0.002,0
						c0.33,0,0.599,0.267,0.6,0.598c0.001,0.331-0.267,0.601-0.598,0.602C438.888,125.288,437.09,125.291,435.263,125.291z"/>
				</g>
				<g>
					<path style="fill:#A5794E;" d="M385.925,125.291c-14.98,0-24.58-0.239-24.685-0.242c-0.331-0.008-0.593-0.284-0.584-0.615
						c0.009-0.326,0.275-0.585,0.6-0.585c0.005,0,0.01,0,0.016,0c0.116,0.003,11.866,0.296,29.684,0.232c0.001,0,0.001,0,0.002,0
						c0.33,0,0.599,0.267,0.6,0.598c0.001,0.331-0.267,0.601-0.598,0.602C389.221,125.288,387.543,125.291,385.925,125.291z"/>
				</g>
				<g>
					<path style="fill:#A5794E;" d="M425.142,131.302h-77.277c-0.331,0-0.6-0.269-0.6-0.6c0-0.331,0.268-0.6,0.6-0.6h77.277
						c0.331,0,0.6,0.268,0.6,0.6C425.742,131.033,425.473,131.302,425.142,131.302z"/>
				</g>
			</g>
		</g>
		<g>
			<g>
				<g>
					<rect x="384.621" y="161.065" style="fill:#BF9362;" width="98.872" height="14.956"/>
				</g>
				<g>
					<path style="fill:#A5794E;" d="M475.205,166.745c-16.93,0-36.55-0.239-36.768-0.242c-0.331-0.004-0.596-0.276-0.592-0.607
						c0.004-0.329,0.271-0.592,0.6-0.592c0.002,0,0.005,0,0.008,0c0.24,0.003,24.286,0.293,42.109,0.232c0.001,0,0.001,0,0.002,0
						c0.33,0,0.599,0.267,0.6,0.598c0.001,0.331-0.267,0.601-0.598,0.602C478.83,166.742,477.032,166.745,475.205,166.745z"/>
				</g>
				<g>
					<path style="fill:#A5794E;" d="M425.866,166.745c-14.98,0-24.58-0.239-24.686-0.242c-0.331-0.008-0.593-0.284-0.584-0.615
						c0.009-0.331,0.238-0.6,0.615-0.585c0.116,0.004,11.868,0.297,29.685,0.232c0.001,0,0.001,0,0.002,0
						c0.33,0,0.599,0.267,0.6,0.598c0.001,0.331-0.267,0.601-0.598,0.602C429.163,166.742,427.483,166.745,425.866,166.745z"/>
				</g>
				<g>
					<path style="fill:#A5794E;" d="M465.084,172.755h-77.277c-0.331,0-0.6-0.269-0.6-0.6c0-0.331,0.268-0.6,0.6-0.6h77.277
						c0.331,0,0.6,0.268,0.6,0.6C465.683,172.487,465.415,172.755,465.084,172.755z"/>
				</g>
			</g>
			<g>
				<g>
					<polygon style="fill:#DD796B;" points="418.641,176.415 390.762,223.446 425.112,263.582 					"/>
				</g>
				<g>
					<defs>
						<polygon id="SVGID_00000101079789822962067250000015931075640633406107_" points="418.641,176.415 390.762,223.446 
							425.112,263.582 						"/>
					</defs>
					<clipPath id="SVGID_00000004514495164644657870000003020243689380805771_">
						<use xlink:href="#SVGID_00000101079789822962067250000015931075640633406107_"  style="overflow:visible;"/>
					</clipPath>
					<g style="clip-path:url(#SVGID_00000004514495164644657870000003020243689380805771_);">
						<g>
							
								<rect x="342.591" y="217.071" transform="matrix(0.3819 -0.9242 0.9242 0.3819 40.803 496.3311)" style="fill:#C16359;" width="97.718" height="1.182"/>
						</g>
						<g>
							
								<rect x="346.891" y="218.851" transform="matrix(0.3819 -0.9242 0.9242 0.3819 41.8172 501.4063)" style="fill:#C16359;" width="97.718" height="1.182"/>
						</g>
						<g>
							
								<rect x="352.266" y="221.075" transform="matrix(0.3819 -0.9242 0.9242 0.3819 43.0837 507.7491)" style="fill:#C16359;" width="97.718" height="1.182"/>
						</g>
						<g>
							
								<rect x="356.995" y="223.033" transform="matrix(0.3819 -0.9242 0.9242 0.3819 44.1741 513.3008)" style="fill:#C16359;" width="97.718" height="1.182"/>
						</g>
						<g>
							
								<rect x="362.37" y="225.258" transform="matrix(0.3819 -0.9242 0.9242 0.3819 45.4402 519.6433)" style="fill:#C16359;" width="97.718" height="1.182"/>
						</g>
						<g>
							
								<rect x="367.339" y="227.314" transform="matrix(0.3819 -0.9242 0.9242 0.3819 46.6105 525.5065)" style="fill:#C16359;" width="97.718" height="1.182"/>
						</g>
						<g>
							
								<rect x="371.639" y="229.094" transform="matrix(0.382 -0.9242 0.9242 0.382 47.6148 530.5695)" style="fill:#C16359;" width="97.718" height="1.181"/>
						</g>
						<g>
							
								<rect x="377.014" y="231.318" transform="matrix(0.382 -0.9242 0.9242 0.382 48.8809 536.9119)" style="fill:#C16359;" width="97.718" height="1.181"/>
						</g>
						<g>
							
								<rect x="381.743" y="233.276" transform="matrix(0.3819 -0.9242 0.9242 0.3819 50.0032 542.5038)" style="fill:#C16359;" width="97.718" height="1.182"/>
						</g>
						<g>
							
								<rect x="387.118" y="235.501" transform="matrix(0.3819 -0.9242 0.9242 0.3819 51.2938 548.8764)" style="fill:#C16359;" width="97.718" height="1.182"/>
						</g>
						<g>
							
								<rect x="422.338" y="155.754" transform="matrix(0.3824 -0.924 0.924 0.3824 72.1267 517.1402)" style="fill:#C16359;" width="1.182" height="97.718"/>
						</g>
						<g>
							
								<rect x="424.333" y="150.933" transform="matrix(0.3824 -0.924 0.924 0.3824 77.812 516.0049)" style="fill:#C16359;" width="1.182" height="97.719"/>
						</g>
						<g>
							
								<rect x="426.195" y="146.433" transform="matrix(0.3824 -0.924 0.924 0.3824 83.121 514.9481)" style="fill:#C16359;" width="1.182" height="97.718"/>
						</g>
						<g>
							
								<rect x="428.087" y="141.863" transform="matrix(0.3824 -0.924 0.924 0.3824 88.5121 513.8734)" style="fill:#C16359;" width="1.182" height="97.718"/>
						</g>
						<g>
							
								<rect x="430.522" y="137.689" transform="matrix(0.3824 -0.924 0.924 0.3824 93.87 513.5428)" style="fill:#C16359;" width="1.182" height="97.718"/>
						</g>
						<g>
							
								<rect x="432.957" y="134.21" transform="matrix(0.3824 -0.924 0.924 0.3824 98.589 513.6458)" style="fill:#C16359;" width="1.182" height="97.719"/>
						</g>
						<g>
							
								<rect x="420.557" y="160.054" transform="matrix(0.3824 -0.924 0.924 0.3824 67.0545 518.1509)" style="fill:#C16359;" width="1.182" height="97.718"/>
						</g>
						<g>
							
								<rect x="418.333" y="165.428" transform="matrix(0.3824 -0.924 0.924 0.3824 60.713 519.4129)" style="fill:#C16359;" width="1.182" height="97.719"/>
						</g>
						<g>
							
								<rect x="416.375" y="170.159" transform="matrix(0.3824 -0.924 0.924 0.3824 55.134 520.5251)" style="fill:#C16359;" width="1.182" height="97.718"/>
						</g>
						<g>
							
								<rect x="414.151" y="175.533" transform="matrix(0.3824 -0.924 0.924 0.3824 48.7929 521.7875)" style="fill:#C16359;" width="1.182" height="97.718"/>
						</g>
						<g>
							
								<rect x="412.094" y="180.503" transform="matrix(0.3824 -0.924 0.924 0.3824 42.9309 522.9555)" style="fill:#C16359;" width="1.182" height="97.718"/>
						</g>
						<g>
							
								<rect x="410.314" y="184.802" transform="matrix(0.3824 -0.924 0.924 0.3824 37.8614 523.9696)" style="fill:#C16359;" width="1.182" height="97.719"/>
						</g>
						<g>
							
								<rect x="408.09" y="190.177" transform="matrix(0.3824 -0.924 0.924 0.3824 31.5243 525.2368)" style="fill:#C16359;" width="1.182" height="97.718"/>
						</g>
						<g>
							
								<rect x="406.132" y="194.907" transform="matrix(0.3824 -0.924 0.924 0.3824 25.9412 526.3441)" style="fill:#C16359;" width="1.182" height="97.718"/>
						</g>
						<g>
							
								<rect x="403.908" y="200.282" transform="matrix(0.3824 -0.924 0.924 0.3824 19.601 527.608)" style="fill:#C16359;" width="1.182" height="97.718"/>
						</g>
						<g>
							
								<rect x="402.864" y="204.803" transform="matrix(0.3824 -0.924 0.924 0.3824 14.781 529.4396)" style="fill:#C16359;" width="1.182" height="97.718"/>
						</g>
					</g>
				</g>
			</g>
			<g>
				<g>
					<defs>
						<polygon id="SVGID_00000043437954587878353560000016701349618767958201_" points="458.473,176.415 430.593,223.446 
							464.944,263.582 						"/>
					</defs>
					<clipPath id="SVGID_00000090992907147249169290000014396352340148301496_">
						<use xlink:href="#SVGID_00000043437954587878353560000016701349618767958201_"  style="overflow:visible;"/>
					</clipPath>
					<g style="clip-path:url(#SVGID_00000090992907147249169290000014396352340148301496_);">
						<g>
							
								<rect x="382.423" y="217.071" transform="matrix(0.3819 -0.9242 0.9242 0.3819 65.4248 533.1446)" style="fill:#C16359;" width="97.718" height="1.182"/>
						</g>
						<g>
							
								<rect x="386.723" y="218.851" transform="matrix(0.3819 -0.9242 0.9242 0.3819 66.4391 538.22)" style="fill:#C16359;" width="97.718" height="1.182"/>
						</g>
						<g>
							
								<rect x="392.097" y="221.075" transform="matrix(0.3819 -0.9242 0.9242 0.3819 67.7041 544.561)" style="fill:#C16359;" width="97.718" height="1.182"/>
						</g>
						<g>
							
								<rect x="396.827" y="223.033" transform="matrix(0.3819 -0.9242 0.9242 0.3819 68.7929 550.1132)" style="fill:#C16359;" width="97.718" height="1.182"/>
						</g>
						<g>
							
								<rect x="402.201" y="225.258" transform="matrix(0.382 -0.9242 0.9242 0.382 70.0481 556.4429)" style="fill:#C16359;" width="97.719" height="1.181"/>
						</g>
						<g>
							
								<rect x="407.171" y="227.314" transform="matrix(0.3819 -0.9242 0.9242 0.3819 71.2294 562.3189)" style="fill:#C16359;" width="97.718" height="1.182"/>
						</g>
						<g>
							
								<rect x="411.471" y="229.094" transform="matrix(0.3819 -0.9242 0.9242 0.3819 72.2424 567.3926)" style="fill:#C16359;" width="97.718" height="1.182"/>
						</g>
						<g>
							
								<rect x="416.846" y="231.318" transform="matrix(0.3819 -0.9242 0.9242 0.3819 73.5085 573.735)" style="fill:#C16359;" width="97.718" height="1.182"/>
						</g>
						<g>
							
								<rect x="421.575" y="233.276" transform="matrix(0.3819 -0.9242 0.9242 0.3819 74.6221 579.3162)" style="fill:#C16359;" width="97.718" height="1.182"/>
						</g>
						<g>
							
								<rect x="426.95" y="235.501" transform="matrix(0.3819 -0.9242 0.9242 0.3819 75.9156 585.69)" style="fill:#C16359;" width="97.718" height="1.182"/>
						</g>
						<g>
							
								<rect x="462.169" y="155.754" transform="matrix(0.3824 -0.924 0.924 0.3824 96.7237 553.9422)" style="fill:#C16359;" width="1.182" height="97.718"/>
						</g>
						<g>
							
								<rect x="464.165" y="150.933" transform="matrix(0.3824 -0.924 0.924 0.3824 102.4107 552.8089)" style="fill:#C16359;" width="1.182" height="97.719"/>
						</g>
						<g>
							
								<rect x="466.027" y="146.433" transform="matrix(0.3824 -0.924 0.924 0.3824 107.7198 551.7521)" style="fill:#C16359;" width="1.182" height="97.718"/>
						</g>
						<g>
							
								<rect x="467.919" y="141.863" transform="matrix(0.3824 -0.924 0.924 0.3824 113.1109 550.6774)" style="fill:#C16359;" width="1.182" height="97.718"/>
						</g>
						<g>
							
								<rect x="470.353" y="137.689" transform="matrix(0.3824 -0.924 0.924 0.3824 118.4694 550.3475)" style="fill:#C16359;" width="1.182" height="97.719"/>
						</g>
						<g>
							
								<rect x="472.788" y="134.211" transform="matrix(0.3824 -0.924 0.924 0.3824 123.186 550.4481)" style="fill:#C16359;" width="1.182" height="97.718"/>
						</g>
						<g>
							
								<rect x="460.389" y="160.054" transform="matrix(0.3824 -0.924 0.924 0.3824 91.6533 554.9549)" style="fill:#C16359;" width="1.182" height="97.718"/>
						</g>
						<g>
							
								<rect x="458.165" y="165.428" transform="matrix(0.3824 -0.924 0.924 0.3824 85.3117 556.2169)" style="fill:#C16359;" width="1.182" height="97.719"/>
						</g>
						<g>
							
								<rect x="456.207" y="170.158" transform="matrix(0.3824 -0.924 0.924 0.3824 79.7336 557.3301)" style="fill:#C16359;" width="1.182" height="97.718"/>
						</g>
						<g>
							
								<rect x="453.982" y="175.533" transform="matrix(0.3824 -0.924 0.924 0.3824 73.3923 558.5924)" style="fill:#C16359;" width="1.182" height="97.719"/>
						</g>
						<g>
							
								<rect x="451.926" y="180.502" transform="matrix(0.3824 -0.924 0.924 0.3824 67.5305 559.7607)" style="fill:#C16359;" width="1.182" height="97.719"/>
						</g>
						<g>
							
								<rect x="450.147" y="184.802" transform="matrix(0.3824 -0.924 0.924 0.3824 62.4603 560.7739)" style="fill:#C16359;" width="1.182" height="97.719"/>
						</g>
						<g>
							
								<rect x="447.921" y="190.177" transform="matrix(0.3824 -0.924 0.924 0.3824 56.1221 562.0392)" style="fill:#C16359;" width="1.182" height="97.717"/>
						</g>
						<g>
							
								<rect x="445.964" y="194.906" transform="matrix(0.3824 -0.924 0.924 0.3824 50.5409 563.1494)" style="fill:#C16359;" width="1.182" height="97.719"/>
						</g>
						<g>
							
								<rect x="443.739" y="200.281" transform="matrix(0.3824 -0.924 0.924 0.3824 44.2006 564.4131)" style="fill:#C16359;" width="1.182" height="97.719"/>
						</g>
						<g>
							
								<rect x="442.696" y="204.804" transform="matrix(0.3824 -0.924 0.924 0.3824 39.3785 566.2419)" style="fill:#C16359;" width="1.182" height="97.718"/>
						</g>
					</g>
				</g>
			</g>
		</g>
	</g>
</g>
</svg>
