<!DOCTYPE svg PUBLIC "-//W3C//DTD SVG 1.1//EN" "http://www.w3.org/Graphics/SVG/1.1/DTD/svg11.dtd">
<!-- Uploaded to: SVG Repo, www.svgrepo.com, Transformed by: SVG Repo Mixer Tools -->
<svg fill="#000000" width="5px" height="5px" viewBox="0 0 128 128" id="Layer_1" version="1.1" xml:space="preserve" xmlns="http://www.w3.org/2000/svg" xmlns:xlink="http://www.w3.org/1999/xlink">

<g id="SVGRepo_bgCarrier" stroke-width="1"/>

<g id="SVGRepo_tracerCarrier" stroke-linecap="round" stroke-linejoin="round"/>

<g id="SVGRepo_iconCarrier"> <g> <path d="M121.8,34.9L96.1,23.2c0,0-0.1,0-0.1,0c-0.1,0-0.1-0.1-0.2-0.1c-0.1,0-0.1,0-0.2,0c-0.1,0-0.2,0-0.2,0s-0.2,0-0.2,0 c-0.1,0-0.1,0-0.2,0c-0.1,0-0.2,0-0.2,0.1c0,0-0.1,0-0.1,0l-8.7,3.9c-3.5-5.2-9.5-8.6-16.3-8.6c0,0,0,0,0,0c-5.2,0-10.2,2-13.9,5.8 c-0.9,0.9-1.7,1.8-2.4,2.9l-8.7-3.9c0,0-0.1,0-0.1,0c-0.1,0-0.1-0.1-0.2-0.1c-0.1,0-0.1,0-0.2,0c-0.1,0-0.2,0-0.2,0 c-0.1,0-0.2,0-0.2,0c-0.1,0-0.1,0-0.2,0c-0.1,0-0.2,0-0.2,0.1c0,0-0.1,0-0.1,0L17.5,34.9c-0.7,0.3-1.1,1-1.1,1.7v65.9 c0,0.6,0.3,1.2,0.9,1.6c0.3,0.2,0.7,0.3,1,0.3c0.3,0,0.5-0.1,0.8-0.2l24.9-11.3l24.9,11.3c0.1,0,0.1,0,0.2,0.1c0,0,0.1,0,0.1,0 c0.2,0,0.3,0.1,0.5,0.1c0.2,0,0.3,0,0.5-0.1c0,0,0.1,0,0.1,0c0.1,0,0.1,0,0.2-0.1l24.9-11.3l24.9,11.3c0.2,0.1,0.5,0.2,0.8,0.2 c0.4,0,0.7-0.1,1-0.3c0.5-0.3,0.9-0.9,0.9-1.6V36.6C122.9,35.9,122.4,35.2,121.8,34.9z M69.6,22.3C69.6,22.3,69.6,22.3,69.6,22.3 c8.8,0,15.9,7.1,15.9,15.9c0,8.3-12.5,25.6-15.9,27.6c-3.4-2-15.9-19.3-15.9-27.6c0-4.2,1.7-8.2,4.7-11.2 C61.4,23.9,65.4,22.3,69.6,22.3z M93.4,89.7l-21.9,9.9V69c6.1-3.8,17.8-22.2,17.8-30.8c0-2.7-0.6-5.4-1.6-7.7l5.8-2.6V89.7z M67.7,69v30.6l-21.9-9.9V27.8l5.8,2.6c-1,2.4-1.6,5-1.6,7.7C50,46.7,61.7,65.2,67.7,69z M20.1,37.8l21.9-10v61.9l-21.9,9.9V37.8z M119.1,99.6l-21.9-9.9V27.8l21.9,10V99.6z"/> <path d="M57.5,36.8c0,6.7,5.4,12.1,12.1,12.1c6.7,0,12.1-5.4,12.1-12.1c0-6.7-5.4-12.1-12.1-12.1C62.9,24.7,57.5,30.1,57.5,36.8z M78,36.8c0,4.6-3.7,8.4-8.4,8.4c-4.6,0-8.4-3.7-8.4-8.4c0-4.6,3.7-8.4,8.4-8.4C74.2,28.4,78,32.2,78,36.8z"/> </g> </g>

</svg>