<!DOCTYPE svg PUBLIC "-//W3C//DTD SVG 1.1//EN" "http://www.w3.org/Graphics/SVG/1.1/DTD/svg11.dtd">
<!-- Uploaded to: SVG Repo, www.svgrepo.com, Transformed by: SVG Repo Mixer Tools -->
<svg version="1.1" id="Layer_1" xmlns="http://www.w3.org/2000/svg" xmlns:xlink="http://www.w3.org/1999/xlink" viewBox="0 0 512 512" xml:space="preserve" width="64px" height="64px" fill="#000000">
<g id="SVGRepo_bgCarrier" stroke-width="0"/>
<g id="SVGRepo_tracerCarrier" stroke-linecap="round" stroke-linejoin="round"/>
<g id="SVGRepo_iconCarrier"> <path style="fill:#e16060;" d="M371.341,399.09V512h33.758c18.567,0,33.758-15.191,33.758-33.758v-33.758L371.341,399.09z"/> <path style="fill:#FF6F6F;" d="M405.099,376.967v101.275c0,18.567-15.191,33.758-33.758,33.758h-264.44 c-18.567,0-33.758-15.191-33.758-33.758v-33.758L405.099,376.967z"/> <path style="fill:#e16060;" d="M405.099,0h-33.758v112.91l67.517-45.394V33.758C438.857,15.191,423.666,0,405.099,0z"/> <path style="fill:#FF6F6F;" d="M405.099,33.758v101.275L73.143,67.516V33.758C73.143,15.191,88.334,0,106.901,0h264.44 C389.908,0,405.099,15.191,405.099,33.758z"/> <polygon style="fill:#CCECFF;" points="438.857,67.516 438.857,444.484 405.099,444.484 325.958,256 405.099,67.516 "/> <rect x="73.143" y="67.516" style="fill:#EDF8FF;" width="331.956" height="376.967"/> <g> <path style="fill:#66d9ff;" d="M306.637,185.67h-16.879v-8.44c0-13.961-11.359-25.319-25.319-25.319H247.56 c-13.961,0-25.319,11.357-25.319,25.319v8.44h-16.879v-8.44c0-23.268,18.929-42.198,42.198-42.198h16.879 c23.268,0,42.198,18.929,42.198,42.198V185.67z"/> <path style="fill:#66d9ff;" d="M379.78,275.692H132.22c-4.661,0-8.44-3.779-8.44-8.44c0-4.661,3.779-8.44,8.44-8.44h247.56 c4.662,0,8.44,3.779,8.44,8.44C388.22,271.914,384.442,275.692,379.78,275.692z"/> </g> <circle style="fill:#e16060;" cx="315.077" cy="33.758" r="8.44"/> <g> <path style="fill:#47631C;" d="M281.319,486.681h-50.637c-4.661,0-8.44-3.779-8.44-8.44s3.779-8.44,8.44-8.44h50.637 c4.662,0,8.44,3.779,8.44,8.44S285.981,486.681,281.319,486.681z"/> <path style="fill:#47631C;" d="M281.319,42.198h-50.637c-4.661,0-8.44-3.779-8.44-8.44s3.779-8.44,8.44-8.44h50.637 c4.662,0,8.44,3.779,8.44,8.44S285.981,42.198,281.319,42.198z"/> </g> <path style="fill:#99D9FF;" d="M320.703,177.231h-33.758l33.758,56.264h33.758v-22.506 C354.462,192.422,339.27,177.231,320.703,177.231z"/> <path style="fill:#CCECFF;" d="M286.945,177.231h-95.648c-18.567,0-33.758,15.191-33.758,33.758v22.506h163.165v-22.506 C320.703,192.422,305.512,177.231,286.945,177.231z"/> <path style="fill:#66d9ff;" d="M157.538,233.495v33.758l163.165,101.275c18.567,0,33.758-15.191,33.758-33.758V233.495H157.538z"/> <g> <path style="fill:#99D9FF;" d="M157.538,267.253v67.517c0,18.567,15.191,33.758,33.758,33.758h129.407V267.253H157.538z"/> <path style="fill:#99D9FF;" d="M357.275,241.934H154.725c-4.661,0-8.44-3.779-8.44-8.44c0-4.661,3.779-8.44,8.44-8.44h202.549 c4.662,0,8.44,3.779,8.44,8.44C365.714,238.155,361.937,241.934,357.275,241.934z"/> </g> </g>
</svg>