<!DOCTYPE svg PUBLIC "-//W3C//DTD SVG 1.1//EN" "http://www.w3.org/Graphics/SVG/1.1/DTD/svg11.dtd">
<!-- Uploaded to: SVG Repo, www.svgrepo.com, Transformed by: SVG Repo Mixer Tools -->
<svg height="800px" width="800px" version="1.1" id="Layer_1" xmlns="http://www.w3.org/2000/svg" xmlns:xlink="http://www.w3.org/1999/xlink" viewBox="0 0 508 508" xml:space="preserve" fill="#000000">
<g id="SVGRepo_bgCarrier" stroke-width="0"/>
<g id="SVGRepo_tracerCarrier" stroke-linecap="round" stroke-linejoin="round"/>
<g id="SVGRepo_iconCarrier"> <path style="fill:#FF6F6F;" d="M508,254c0,84.4-41.2,159.2-104.8,205.6C361.6,490,310,508,254,508c-7.6,0-14.8-0.4-22-0.8 c-47.2-4-90.8-21.2-127.2-47.6C41.2,413.2,0,338.4,0,254C0,113.6,113.6,0,254,0S508,113.6,508,254z"/> <path style="fill:#2B3B4E;" d="M342,255.6c0,58.8-39.2,118.4-88,118.4s-88-59.6-88-118.4c0-59.2,39.6-95.2,88-95.2 C302.8,160,342,196.4,342,255.6z"/> <path style="fill:#CED5E0;" d="M405.6,431.6c0,8.8-0.8,18.4-2.4,28C361.6,490,310,508,254,508c-7.6,0-14.8-0.4-22-0.8 c-47.2-4-90.8-21.2-127.2-47.6c-1.6-9.6-2.4-18.8-2.4-28c0-82.4,68-105.2,151.6-105.2C337.6,326.4,405.6,349.2,405.6,431.6z"/> <path style="fill:#E6E9EE;" d="M405.6,431.6c0,8.8-0.8,18.4-2.4,28C361.6,490,310,508,254,508c-7.6,0-14.8-0.4-22-0.8V382.4l61.2-54 C358,335.2,405.6,362.4,405.6,431.6z"/> <path style="fill:#F9B54C;" d="M298.4,330.4c-0.4-0.4-0.4-0.8-0.8-1.6c0,0-0.8,3.6-5.2,9.6c-19.6,24.4-57.2,24.4-76.8,0 c-4.4-5.6-5.2-9.6-5.2-9.6c-0.4,0.4-0.4,0.8-0.8,1.2c1.6-2.8,2.4-6,2.8-9.6l0.8-12.8l0,0L216,268h75.2l4,52.4c0,2.8,0.8,5.6,2,8 C298,329.2,298,330,298.4,330.4z"/> <path style="fill:#FFD05B;" d="M322,243.6c-1.6-0.8-4-0.8-6,0c0-0.8,0-1.6,0-2.4c0-42.4-27.6-58-62-58s-62,15.6-62,58 c0,0.8,0,1.6,0,2.4c-2-0.8-4-0.8-6,0c-5.2,2.8-6,13.2-1.6,22.8c3.6,8,9.2,13.2,14.4,13.6c10,30.4,31.2,56.8,55.2,56.8 s45.2-26.4,55.2-57.2c4.8,0,10.8-5.2,14.4-13.6C328,256.4,327.2,246.4,322,243.6z"/> <g> <path style="fill:#2B3B4E;" d="M304.8,316.8c3.6-24.4-2.8-42-5.2-54.4c-2.8-15.6-15.6-28-31.6-30.8c-52.4-9.2-58-44-58-44 l39.6-14.4l57.2,14.4l19.6,36l8,45.2l-15.6,44.4L304.8,316.8z"/> <path style="fill:#2B3B4E;" d="M196.4,289.2c0,0,12.8-62.8,50-92c37.2-29.6-18-18.8-18-18.8L200,188.8l-23.2,44L174,286 L196.4,289.2z"/> </g> <g> <path style="fill:#FFFFFF;" d="M362.8,91.6c0-23.2-18.8-42-42-42c-12,0-23.2,5.2-30.8,13.2C285.2,45.2,268.8,32,249.6,32 c-17.2,0-32,10.4-38.4,25.2c-6.8-4.8-15.2-8-24.4-8c-23.2,0-42,18.8-42,42c0,14.8,7.6,28,19.6,35.6c4.4,18,8.8,37.2,13.6,58 c-0.8,0-2,0-2.8,0.4c-2.4,0.4-4,2.4-3.6,4.8c0.8,6.4,1.6,12.4,2.4,18.8c0.4,2.4,2.4,4,4.8,3.6c50.4-6,101.2-6,151.2,0 c2.4,0.4,4.4-1.2,4.8-3.6c0.8-6.4,1.6-12.4,2.4-18.8c0.4-2.4-1.2-4.4-3.6-4.8c-0.8,0-2,0-2.8-0.4c4.8-20.8,9.2-40.4,13.6-58 C355.2,119.6,362.8,106.4,362.8,91.6z"/> <circle style="fill:#FFFFFF;" cx="254" cy="398.4" r="11.6"/> <circle style="fill:#FFFFFF;" cx="292.4" cy="398.4" r="11.6"/> <circle style="fill:#FFFFFF;" cx="254" cy="432" r="11.6"/> <circle style="fill:#FFFFFF;" cx="292.4" cy="432" r="11.6"/> <circle style="fill:#FFFFFF;" cx="254" cy="465.6" r="11.6"/> <circle style="fill:#FFFFFF;" cx="292.4" cy="465.6" r="11.6"/> </g> </g>
</svg>